<svg width="360" height="740" viewBox="0 0 360 740" fill="none" xmlns="http://www.w3.org/2000/svg">
<g clip-path="url(#clip0_6_2)">
<rect width="360" height="740" fill="#ECECEC"/>
<rect x="83" y="118" width="193" height="560" rx="15" fill="white"/>
<path d="M111.64 94.6H117.256V97H111.64V94.6ZM111.64 98.848H117.352V101.248H111.64V98.848ZM101.896 93.064H112.432V102.856H101.896V93.064ZM109.312 95.56H105.04V100.36H109.312V95.56ZM116.368 91.912H119.56V104.44H116.368V91.912ZM110.44 107.344H113.128V107.656C113.128 108.44 112.936 109.192 112.552 109.912C112.184 110.616 111.624 111.256 110.872 111.832C110.136 112.408 109.224 112.888 108.136 113.272C107.064 113.656 105.816 113.92 104.392 114.064L103.384 111.688C104.344 111.608 105.208 111.472 105.976 111.28C106.744 111.088 107.408 110.856 107.968 110.584C108.528 110.312 108.984 110.008 109.336 109.672C109.704 109.336 109.976 109 110.152 108.664C110.344 108.312 110.44 107.976 110.44 107.656V107.344ZM111.016 107.344H113.704V107.656C113.704 108.056 113.848 108.464 114.136 108.88C114.424 109.296 114.856 109.704 115.432 110.104C116.008 110.488 116.736 110.824 117.616 111.112C118.512 111.384 119.56 111.576 120.76 111.688L119.752 114.064C118.312 113.92 117.048 113.648 115.96 113.248C114.872 112.864 113.96 112.384 113.224 111.808C112.488 111.216 111.936 110.568 111.568 109.864C111.2 109.16 111.016 108.424 111.016 107.656V107.344ZM104.248 105.664H119.896V108.016H104.248V105.664ZM110.464 103.888H113.704V106.864H110.464V103.888ZM137.342 91.912H140.534V108.256H137.342V91.912ZM139.646 98.152H143.486V100.792H139.646V98.152ZM126.206 111.184H141.326V113.752H126.206V111.184ZM126.206 106.624H129.422V111.736H126.206V106.624ZM123.686 93.496H126.854V96.664H131.222V93.496H134.366V104.776H123.686V93.496ZM126.854 99.112V102.256H131.222V99.112H126.854Z" fill="black"/>
<path d="M148.793 106.545V106.136C148.793 105.199 148.866 104.452 149.014 103.895C149.162 103.338 149.381 102.892 149.67 102.557C149.96 102.216 150.315 101.909 150.736 101.636C151.099 101.398 151.423 101.168 151.707 100.946C151.997 100.724 152.224 100.489 152.389 100.239C152.56 99.9886 152.645 99.7045 152.645 99.3864C152.645 99.1023 152.577 98.8523 152.44 98.6364C152.304 98.4205 152.119 98.2528 151.886 98.1335C151.653 98.0142 151.395 97.9545 151.111 97.9545C150.804 97.9545 150.52 98.0256 150.259 98.1676C150.003 98.3097 149.795 98.5057 149.636 98.7557C149.483 99.0057 149.406 99.2955 149.406 99.625H145.043C145.054 98.375 145.338 97.3608 145.895 96.5824C146.452 95.7983 147.19 95.2244 148.111 94.8608C149.031 94.4915 150.043 94.3068 151.145 94.3068C152.361 94.3068 153.446 94.4858 154.401 94.8438C155.355 95.196 156.108 95.7301 156.659 96.446C157.21 97.1562 157.486 98.0455 157.486 99.1136C157.486 99.8011 157.366 100.406 157.128 100.929C156.895 101.446 156.568 101.903 156.148 102.301C155.733 102.693 155.247 103.051 154.69 103.375C154.281 103.614 153.938 103.861 153.659 104.116C153.381 104.366 153.17 104.653 153.028 104.977C152.886 105.295 152.815 105.682 152.815 106.136V106.545H148.793ZM150.872 112.273C150.213 112.273 149.648 112.043 149.176 111.582C148.71 111.116 148.48 110.551 148.486 109.886C148.48 109.239 148.71 108.685 149.176 108.224C149.648 107.764 150.213 107.534 150.872 107.534C151.497 107.534 152.048 107.764 152.526 108.224C153.009 108.685 153.253 109.239 153.259 109.886C153.253 110.33 153.136 110.733 152.909 111.097C152.688 111.455 152.398 111.741 152.04 111.957C151.682 112.168 151.293 112.273 150.872 112.273Z" fill="#004FFF"/>
<path d="M12.856 727.076H13.804V737.936H12.856V727.076ZM8.896 730.976H10.984V731.792H8.896V730.976ZM10.684 727.328H11.62V737.372H10.684V727.328ZM6.82 728.768H7.588V730.148C7.588 730.74 7.532 731.32 7.42 731.888C7.308 732.448 7.144 732.976 6.928 733.472C6.712 733.96 6.448 734.404 6.136 734.804C5.824 735.196 5.472 735.516 5.08 735.764L4.468 735.02C4.972 734.716 5.396 734.308 5.74 733.796C6.092 733.284 6.36 732.712 6.544 732.08C6.728 731.448 6.82 730.804 6.82 730.148V728.768ZM7.024 728.768H7.78V730.148C7.78 730.772 7.868 731.384 8.044 731.984C8.228 732.584 8.488 733.128 8.824 733.616C9.168 734.096 9.588 734.48 10.084 734.768L9.484 735.512C8.956 735.184 8.508 734.748 8.14 734.204C7.78 733.652 7.504 733.028 7.312 732.332C7.12 731.628 7.024 730.9 7.024 730.148V728.768ZM4.768 728.348H9.724V729.164H4.768V728.348ZM18.3151 728.192H19.1311V729.068C19.1311 729.732 19.0031 730.352 18.7471 730.928C18.4991 731.496 18.1511 731.992 17.7031 732.416C17.2551 732.832 16.7271 733.148 16.1191 733.364L15.5911 732.596C16.1351 732.404 16.6111 732.128 17.0191 731.768C17.4271 731.408 17.7431 731 17.9671 730.544C18.1991 730.08 18.3151 729.588 18.3151 729.068V728.192ZM18.4951 728.192H19.3111V729.068C19.3111 729.54 19.4191 729.996 19.6351 730.436C19.8511 730.876 20.1551 731.264 20.5471 731.6C20.9471 731.936 21.4111 732.196 21.9391 732.38L21.4351 733.16C20.8431 732.944 20.3231 732.636 19.8751 732.236C19.4351 731.828 19.0951 731.352 18.8551 730.808C18.6151 730.264 18.4951 729.684 18.4951 729.068V728.192ZM15.8911 727.832H21.6991V728.648H15.8911V727.832ZM23.0671 727.076H24.0631V733.616H23.0671V727.076ZM23.7871 729.932H25.6591V730.772H23.7871V729.932ZM17.0071 734.192H24.0631V737.936H23.0671V735.008H17.0071V734.192ZM29.3541 728.636H30.1581V730.388C30.1581 730.956 30.0781 731.52 29.9181 732.08C29.7581 732.632 29.5341 733.156 29.2461 733.652C28.9661 734.14 28.6421 734.576 28.2741 734.96C27.9061 735.336 27.5101 735.632 27.0861 735.848L26.4981 735.056C26.8901 734.864 27.2541 734.604 27.5901 734.276C27.9341 733.94 28.2381 733.56 28.5021 733.136C28.7661 732.704 28.9741 732.256 29.1261 731.792C29.2781 731.32 29.3541 730.852 29.3541 730.388V728.636ZM29.5461 728.636H30.3381V730.388C30.3381 730.82 30.4061 731.256 30.5421 731.696C30.6861 732.136 30.8861 732.556 31.1421 732.956C31.3981 733.356 31.6941 733.716 32.0301 734.036C32.3741 734.348 32.7381 734.6 33.1221 734.792L32.5581 735.584C32.1341 735.368 31.7381 735.08 31.3701 734.72C31.0021 734.352 30.6821 733.936 30.4101 733.472C30.1381 733.008 29.9261 732.512 29.7741 731.984C29.6221 731.456 29.5461 730.924 29.5461 730.388V728.636ZM26.8821 728.192H32.7381V729.02H26.8821V728.192ZM34.0221 727.076H35.0181V737.936H34.0221V727.076ZM34.7901 731.456H36.7941V732.296H34.7901V731.456ZM45.0263 732.901V733.616H41.3956V732.901H45.0263ZM53.0127 732.812H54.0087V735.176H53.0127V732.812ZM53.0007 728.996H53.8047V729.248C53.8047 729.88 53.6767 730.46 53.4207 730.988C53.1647 731.508 52.8087 731.956 52.3527 732.332C51.8967 732.7 51.3647 732.98 50.7567 733.172L50.2887 732.404C50.8247 732.236 51.2967 732 51.7047 731.696C52.1127 731.384 52.4287 731.02 52.6527 730.604C52.8847 730.18 53.0007 729.728 53.0007 729.248V728.996ZM53.1927 728.996H54.0087V729.248C54.0087 729.712 54.1247 730.148 54.3567 730.556C54.5887 730.956 54.9087 731.308 55.3167 731.612C55.7327 731.908 56.2087 732.132 56.7447 732.284L56.2887 733.064C55.6807 732.88 55.1447 732.604 54.6807 732.236C54.2167 731.868 53.8527 731.432 53.5887 730.928C53.3247 730.416 53.1927 729.856 53.1927 729.248V728.996ZM50.5527 728.492H56.5047V729.308H50.5527V728.492ZM53.0127 727.16H54.0087V728.852H53.0127V727.16ZM57.7527 727.076H58.7487V737.948H57.7527V727.076ZM50.0967 735.704L49.9647 734.876C50.6207 734.876 51.3447 734.872 52.1367 734.864C52.9367 734.848 53.7567 734.816 54.5967 734.768C55.4447 734.712 56.2607 734.62 57.0447 734.492L57.1287 735.236C56.3127 735.388 55.4847 735.496 54.6447 735.56C53.8127 735.624 53.0087 735.664 52.2327 735.68C51.4567 735.696 50.7447 735.704 50.0967 735.704ZM68.8758 727.088H69.8718V735.368H68.8758V727.088ZM67.0398 729.968H69.2838V730.784H67.0398V729.968ZM67.0398 732.248H69.2838V733.052H67.0398V732.248ZM60.9558 728.408H67.0398V729.212H60.9558V728.408ZM64.0278 729.8C64.5158 729.8 64.9438 729.888 65.3118 730.064C65.6798 730.24 65.9678 730.484 66.1758 730.796C66.3838 731.108 66.4878 731.468 66.4878 731.876C66.4878 732.284 66.3838 732.648 66.1758 732.968C65.9678 733.28 65.6798 733.524 65.3118 733.7C64.9438 733.868 64.5158 733.952 64.0278 733.952C63.5478 733.952 63.1238 733.868 62.7558 733.7C62.3878 733.524 62.0998 733.28 61.8918 732.968C61.6838 732.648 61.5798 732.284 61.5798 731.876C61.5798 731.468 61.6838 731.108 61.8918 730.796C62.0998 730.484 62.3878 730.24 62.7558 730.064C63.1238 729.888 63.5478 729.8 64.0278 729.8ZM64.0278 730.592C63.5798 730.592 63.2158 730.712 62.9358 730.952C62.6558 731.184 62.5158 731.492 62.5158 731.876C62.5158 732.268 62.6558 732.584 62.9358 732.824C63.2158 733.056 63.5798 733.172 64.0278 733.172C64.4758 733.172 64.8398 733.056 65.1198 732.824C65.4078 732.584 65.5518 732.268 65.5518 731.876C65.5518 731.492 65.4078 731.184 65.1198 730.952C64.8398 730.712 64.4758 730.592 64.0278 730.592ZM63.5478 727.076H64.5318V728.912H63.5478V727.076ZM62.8998 736.88H70.1238V737.696H62.8998V736.88ZM62.8998 734.648H63.8958V737.264H62.8998V734.648ZM72.4628 728.672H81.2828V729.488H72.4628V728.672ZM71.9828 735.848H81.8228V736.664H71.9828V735.848ZM76.3868 734.12H77.3708V736.16H76.3868V734.12ZM76.8788 730.208C77.6068 730.208 78.2348 730.292 78.7628 730.46C79.2988 730.62 79.7108 730.852 79.9988 731.156C80.2868 731.46 80.4308 731.832 80.4308 732.272C80.4308 732.704 80.2868 733.076 79.9988 733.388C79.7108 733.7 79.2988 733.94 78.7628 734.108C78.2348 734.268 77.6068 734.348 76.8788 734.348C76.1508 734.348 75.5188 734.268 74.9828 734.108C74.4548 733.94 74.0468 733.7 73.7588 733.388C73.4708 733.076 73.3268 732.704 73.3268 732.272C73.3268 731.832 73.4708 731.46 73.7588 731.156C74.0468 730.852 74.4548 730.62 74.9828 730.46C75.5188 730.292 76.1508 730.208 76.8788 730.208ZM76.8788 731C76.3508 731 75.8948 731.052 75.5108 731.156C75.1348 731.252 74.8428 731.396 74.6348 731.588C74.4348 731.772 74.3348 732 74.3348 732.272C74.3348 732.536 74.4348 732.764 74.6348 732.956C74.8428 733.148 75.1348 733.296 75.5108 733.4C75.8948 733.496 76.3508 733.544 76.8788 733.544C77.4068 733.544 77.8588 733.496 78.2348 733.4C78.6108 733.296 78.9028 733.148 79.1108 732.956C79.3188 732.764 79.4228 732.536 79.4228 732.272C79.4228 732 79.3188 731.772 79.1108 731.588C78.9028 731.396 78.6108 731.252 78.2348 731.156C77.8588 731.052 77.4068 731 76.8788 731ZM76.3868 727.256H77.3708V729.164H76.3868V727.256Z" fill="#8D8D8D"/>
</g>
<defs>
<clipPath id="clip0_6_2">
<rect width="360" height="740" fill="white"/>
</clipPath>
</defs>
</svg>
