<svg width="360" height="740" viewBox="0 0 360 740" fill="none" xmlns="http://www.w3.org/2000/svg">
<rect width="360" height="740" fill="#ECECEC"/>
<rect x="22.25" y="192.25" width="314.5" height="349.5" rx="14.75" fill="white" stroke="#555555" stroke-width="0.5"/>
<path d="M300.706 469.1H307.133V470.261H300.706V469.1ZM299.577 472.594H308.779V473.766H299.577V472.594ZM303.437 473.416H304.885V475.541H303.437V473.416ZM306.256 469.1H307.693V469.911C307.693 470.349 307.678 470.831 307.649 471.357C307.627 471.875 307.536 472.466 307.375 473.131L305.949 473C306.102 472.342 306.19 471.773 306.212 471.291C306.241 470.802 306.256 470.341 306.256 469.911V469.1ZM300.498 475.19H307.715V478.816H306.256V476.34H300.498V475.19Z" fill="#303030"/>
<path d="M312.441 469.363C312.946 469.363 313.395 469.513 313.79 469.812C314.192 470.104 314.503 470.524 314.722 471.072C314.949 471.612 315.062 472.251 315.062 472.989C315.062 473.733 314.949 474.38 314.722 474.927C314.503 475.468 314.192 475.888 313.79 476.187C313.395 476.479 312.946 476.625 312.441 476.625C311.937 476.625 311.487 476.479 311.092 476.187C310.697 475.888 310.386 475.468 310.16 474.927C309.933 474.38 309.82 473.733 309.82 472.989C309.82 472.251 309.933 471.612 310.16 471.072C310.386 470.524 310.697 470.104 311.092 469.812C311.487 469.513 311.937 469.363 312.441 469.363ZM312.441 470.688C312.2 470.688 311.984 470.776 311.794 470.951C311.611 471.126 311.469 471.386 311.366 471.729C311.264 472.065 311.213 472.485 311.213 472.989C311.213 473.485 311.264 473.909 311.366 474.259C311.469 474.602 311.611 474.862 311.794 475.037C311.984 475.212 312.2 475.3 312.441 475.3C312.697 475.3 312.916 475.212 313.099 475.037C313.282 474.862 313.425 474.602 313.527 474.259C313.629 473.909 313.681 473.485 313.681 472.989C313.681 472.485 313.629 472.065 313.527 471.729C313.425 471.386 313.282 471.126 313.099 470.951C312.916 470.776 312.697 470.688 312.441 470.688ZM316.73 468.651H318.188V478.827H316.73V468.651ZM314.635 472.32H317.344V473.482H314.635V472.32Z" fill="#303030"/>
<path d="M192.178 241.248H193.352V242.716C193.352 243.344 193.297 243.958 193.187 244.556C193.077 245.148 192.906 245.699 192.672 246.21C192.445 246.722 192.156 247.178 191.805 247.58C191.454 247.974 191.041 248.288 190.566 248.522L189.688 247.35C190.12 247.152 190.489 246.89 190.796 246.561C191.11 246.232 191.37 245.86 191.575 245.444C191.78 245.027 191.929 244.589 192.024 244.129C192.127 243.662 192.178 243.191 192.178 242.716V241.248ZM192.463 241.248H193.637V242.716C193.637 243.176 193.681 243.629 193.768 244.074C193.863 244.52 194.006 244.943 194.196 245.345C194.394 245.739 194.639 246.094 194.931 246.408C195.223 246.722 195.574 246.981 195.984 247.185L195.096 248.346C194.642 248.113 194.247 247.806 193.911 247.426C193.582 247.039 193.311 246.597 193.099 246.101C192.887 245.597 192.726 245.06 192.617 244.491C192.514 243.914 192.463 243.322 192.463 242.716V241.248ZM196.379 240.471H197.848V250.614H196.379V240.471ZM197.53 244.37H199.318V245.575H197.53V244.37Z" fill="#303030"/>
<path d="M202.553 246.638H204.012V248.281H202.553V246.638ZM206.995 240.471H208.454V250.614H206.995V240.471ZM200.206 248.927L200.03 247.744C200.644 247.744 201.314 247.74 202.037 247.733C202.761 247.726 203.503 247.7 204.264 247.656C205.032 247.613 205.77 247.543 206.479 247.448L206.578 248.5C205.84 248.631 205.094 248.73 204.341 248.796C203.595 248.854 202.871 248.89 202.169 248.905C201.467 248.92 200.813 248.927 200.206 248.927ZM200.228 241.588H206.348V242.727H200.228V241.588ZM203.288 243.121C203.785 243.121 204.224 243.202 204.604 243.362C204.984 243.523 205.28 243.746 205.492 244.031C205.712 244.315 205.821 244.648 205.821 245.027C205.821 245.4 205.712 245.732 205.492 246.024C205.28 246.309 204.984 246.532 204.604 246.692C204.224 246.853 203.785 246.933 203.288 246.933C202.791 246.933 202.352 246.853 201.972 246.692C201.591 246.532 201.292 246.309 201.072 246.024C200.86 245.732 200.754 245.4 200.754 245.027C200.754 244.648 200.86 244.315 201.072 244.031C201.292 243.746 201.591 243.523 201.972 243.362C202.352 243.202 202.791 243.121 203.288 243.121ZM203.288 244.217C202.951 244.217 202.677 244.29 202.465 244.436C202.253 244.575 202.147 244.772 202.147 245.027C202.147 245.29 202.253 245.491 202.465 245.63C202.677 245.769 202.951 245.838 203.288 245.838C203.624 245.838 203.898 245.769 204.11 245.63C204.322 245.491 204.428 245.29 204.428 245.027C204.428 244.772 204.322 244.575 204.11 244.436C203.898 244.29 203.624 244.217 203.288 244.217ZM202.553 240.504H204.023V242.245H202.553V240.504Z" fill="#303030"/>
<path d="M194.032 289.945H195.633V291.128H194.032V289.945ZM191.663 288.926H192.77V289.189C192.77 289.715 192.726 290.237 192.639 290.755C192.558 291.267 192.427 291.752 192.244 292.212C192.068 292.665 191.838 293.078 191.553 293.45C191.275 293.815 190.931 294.115 190.522 294.348L189.71 293.253C190.069 293.041 190.372 292.786 190.621 292.486C190.869 292.179 191.07 291.847 191.224 291.489C191.385 291.124 191.498 290.748 191.564 290.361C191.63 289.967 191.663 289.576 191.663 289.189V288.926ZM191.948 288.926H193.055V289.189C193.055 289.562 193.088 289.938 193.154 290.317C193.227 290.697 193.341 291.055 193.494 291.391C193.648 291.727 193.849 292.037 194.097 292.322C194.346 292.599 194.649 292.833 195.008 293.023L194.218 294.107C193.677 293.823 193.238 293.428 192.902 292.924C192.566 292.413 192.321 291.836 192.167 291.194C192.021 290.544 191.948 289.876 191.948 289.189V288.926ZM190.083 287.809H194.613V288.981H190.083V287.809ZM191.663 286.44H193.055V288.751H191.663V286.44ZM197.223 286.1H198.616V296.243H197.223V286.1ZM195.172 286.264H196.532V295.783H195.172V286.264Z" fill="#303030"/>
<path d="M202.147 291.402H203.595V293.395H202.147V291.402ZM205.536 291.391H206.984V293.384H205.536V291.391ZM199.975 290.832H209.167V291.982H199.975V290.832ZM200.995 292.924H208.059V296.254H206.6V294.064H200.995V292.924ZM204.571 286.308C205.317 286.308 205.964 286.389 206.512 286.549C207.068 286.71 207.496 286.94 207.796 287.239C208.103 287.531 208.256 287.886 208.256 288.302C208.256 288.711 208.103 289.065 207.796 289.364C207.496 289.664 207.068 289.894 206.512 290.054C205.964 290.215 205.317 290.295 204.571 290.295C203.832 290.295 203.185 290.215 202.63 290.054C202.081 289.894 201.654 289.664 201.346 289.364C201.047 289.065 200.897 288.711 200.897 288.302C200.897 287.886 201.047 287.531 201.346 287.239C201.654 286.94 202.081 286.71 202.63 286.549C203.185 286.389 203.832 286.308 204.571 286.308ZM204.571 287.426C204.118 287.426 203.726 287.458 203.397 287.524C203.068 287.583 202.82 287.678 202.652 287.809C202.491 287.94 202.41 288.105 202.41 288.302C202.41 288.492 202.491 288.652 202.652 288.784C202.82 288.915 203.068 289.014 203.397 289.08C203.726 289.138 204.118 289.167 204.571 289.167C205.039 289.167 205.434 289.138 205.756 289.08C206.077 289.014 206.322 288.915 206.49 288.784C206.659 288.652 206.743 288.492 206.743 288.302C206.743 288.105 206.659 287.94 206.49 287.809C206.322 287.678 206.077 287.583 205.756 287.524C205.434 287.458 205.039 287.426 204.571 287.426Z" fill="#303030"/>
<path d="M193.725 332.036H194.997V332.518C194.997 332.905 194.935 333.281 194.81 333.647C194.693 334.004 194.518 334.34 194.284 334.654C194.05 334.968 193.765 335.249 193.428 335.498C193.092 335.746 192.701 335.958 192.255 336.133C191.816 336.301 191.334 336.429 190.807 336.516L190.237 335.344C190.705 335.286 191.121 335.187 191.487 335.049C191.86 334.91 192.185 334.746 192.463 334.556C192.748 334.366 192.982 334.158 193.165 333.931C193.348 333.705 193.487 333.471 193.582 333.23C193.677 332.989 193.725 332.752 193.725 332.518V332.036ZM193.999 332.036H195.271V332.518C195.271 332.752 195.319 332.989 195.414 333.23C195.509 333.471 195.648 333.705 195.83 333.931C196.013 334.158 196.244 334.366 196.521 334.556C196.807 334.746 197.132 334.91 197.498 335.049C197.87 335.187 198.291 335.286 198.759 335.344L198.188 336.516C197.655 336.429 197.168 336.301 196.73 336.133C196.291 335.958 195.904 335.746 195.567 335.498C195.231 335.242 194.946 334.957 194.712 334.643C194.478 334.329 194.299 333.993 194.174 333.636C194.057 333.278 193.999 332.905 193.999 332.518V332.036ZM193.725 338.17H195.183V341.895H193.725V338.17ZM189.897 337.25H199.088V338.433H189.897V337.25Z" fill="#303030"/>
<path d="M199.986 332.628H205.953V333.778H199.986V332.628ZM202.97 334.096C203.46 334.096 203.891 334.176 204.264 334.337C204.644 334.497 204.94 334.716 205.152 334.994C205.364 335.271 205.47 335.6 205.47 335.98C205.47 336.345 205.364 336.67 205.152 336.955C204.94 337.232 204.644 337.451 204.264 337.612C203.891 337.765 203.46 337.842 202.97 337.842C202.487 337.842 202.056 337.765 201.675 337.612C201.295 337.451 200.999 337.232 200.787 336.955C200.575 336.67 200.469 336.345 200.469 335.98C200.469 335.6 200.575 335.271 200.787 334.994C200.999 334.716 201.295 334.497 201.675 334.337C202.056 334.176 202.487 334.096 202.97 334.096ZM202.97 335.202C202.648 335.202 202.385 335.268 202.18 335.399C201.975 335.523 201.873 335.717 201.873 335.98C201.873 336.228 201.975 336.418 202.18 336.549C202.385 336.681 202.648 336.746 202.97 336.746C203.299 336.746 203.562 336.681 203.759 336.549C203.964 336.418 204.066 336.228 204.066 335.98C204.066 335.717 203.964 335.523 203.759 335.399C203.562 335.268 203.299 335.202 202.97 335.202ZM206.512 331.752H207.971V338.105H206.512V331.752ZM207.576 334.359H209.32V335.552H207.576V334.359ZM201.193 338.532H207.971V341.895H206.512V339.682H201.193V338.532ZM202.246 331.686H203.694V333.296H202.246V331.686Z" fill="#303030"/>
<path d="M190.972 381.905H198.112V383.077H190.972V381.905ZM189.897 385.202H199.099V386.396H189.897V385.202ZM193.757 382.442H195.205V385.585H193.757V382.442ZM190.972 378.082H198.035V379.243H192.419V382.409H190.972V378.082Z" fill="#303030"/>
<path d="M200.524 382.036H201.324C202.004 382.036 202.586 382.029 203.068 382.014C203.551 381.993 203.986 381.963 204.374 381.927C204.761 381.883 205.145 381.821 205.525 381.741L205.668 382.891C205.273 382.978 204.874 383.044 204.472 383.088C204.07 383.132 203.617 383.161 203.112 383.176C202.615 383.19 202.019 383.197 201.324 383.197H200.524V382.036ZM200.524 378.071H205.086V379.232H201.972V382.354H200.524V378.071ZM201.555 383.953H208.487V387.535H207.017V385.114H201.555V383.953ZM207.017 377.381H208.487V383.515H207.017V377.381ZM204.626 379.922H207.401V381.072H204.626V379.922Z" fill="#303030"/>
<path d="M196.423 423.032H197.881V430.612H196.423V423.032ZM197.476 426.121H199.23V427.326H197.476V426.121ZM189.897 424.095H195.863V425.234H189.897V424.095ZM192.88 425.596C193.37 425.596 193.801 425.68 194.174 425.848C194.554 426.008 194.851 426.238 195.063 426.538C195.275 426.83 195.381 427.166 195.381 427.545C195.381 427.932 195.275 428.276 195.063 428.575C194.851 428.867 194.554 429.097 194.174 429.265C193.801 429.426 193.37 429.506 192.88 429.506C192.397 429.506 191.966 429.426 191.586 429.265C191.206 429.097 190.909 428.867 190.697 428.575C190.485 428.276 190.379 427.932 190.379 427.545C190.379 427.166 190.485 426.83 190.697 426.538C190.909 426.238 191.206 426.008 191.586 425.848C191.966 425.68 192.397 425.596 192.88 425.596ZM192.88 426.702C192.558 426.702 192.295 426.775 192.09 426.921C191.886 427.067 191.783 427.279 191.783 427.556C191.783 427.827 191.886 428.035 192.09 428.181C192.295 428.327 192.558 428.4 192.88 428.4C193.209 428.4 193.472 428.327 193.67 428.181C193.874 428.035 193.977 427.827 193.977 427.556C193.977 427.279 193.874 427.067 193.67 426.921C193.472 426.775 193.209 426.702 192.88 426.702ZM192.156 423.021H193.604V424.643H192.156V423.021ZM191.334 431.828H198.243V433H191.334V431.828ZM191.334 430.043H192.803V432.332H191.334V430.043Z" fill="#303030"/>
<path d="M199.975 428.038H209.178V429.188H199.975V428.038ZM203.968 428.761H205.427V430.897H203.968V428.761ZM201.105 423.449H208.004V427.228H201.105V423.449ZM206.567 424.588H202.542V426.078H206.567V424.588ZM201.039 431.828H208.158V433H201.039V431.828ZM201.039 430.043H202.498V432.223H201.039V430.043Z" fill="#303030"/>
<path d="M194.383 469.987H197.388V471.159H194.383V469.987ZM194.383 472.244H197.388V473.405H194.383V472.244ZM192.694 469.21C193.205 469.21 193.662 469.319 194.065 469.538C194.467 469.75 194.785 470.042 195.019 470.414C195.26 470.787 195.381 471.214 195.381 471.696C195.381 472.171 195.26 472.594 195.019 472.967C194.785 473.339 194.467 473.635 194.065 473.854C193.662 474.066 193.205 474.172 192.694 474.172C192.196 474.172 191.743 474.066 191.334 473.854C190.931 473.635 190.61 473.339 190.368 472.967C190.134 472.594 190.017 472.171 190.017 471.696C190.017 471.214 190.134 470.787 190.368 470.414C190.61 470.042 190.931 469.75 191.334 469.538C191.743 469.319 192.196 469.21 192.694 469.21ZM192.694 470.436C192.452 470.436 192.233 470.488 192.035 470.59C191.838 470.685 191.681 470.827 191.564 471.017C191.454 471.2 191.399 471.426 191.399 471.696C191.399 471.952 191.454 472.174 191.564 472.364C191.681 472.554 191.838 472.7 192.035 472.802C192.233 472.897 192.452 472.945 192.694 472.945C192.949 472.945 193.172 472.897 193.363 472.802C193.56 472.7 193.714 472.554 193.823 472.364C193.933 472.174 193.988 471.952 193.988 471.696C193.988 471.426 193.933 471.2 193.823 471.017C193.714 470.827 193.56 470.685 193.363 470.59C193.172 470.488 192.949 470.436 192.694 470.436ZM196.927 468.673H198.397V474.61H196.927V468.673ZM194.953 474.818C195.67 474.818 196.284 474.898 196.796 475.059C197.315 475.212 197.717 475.439 198.002 475.738C198.287 476.037 198.43 476.395 198.43 476.811C198.43 477.228 198.287 477.586 198.002 477.885C197.717 478.192 197.315 478.422 196.796 478.575C196.284 478.736 195.67 478.816 194.953 478.816C194.236 478.816 193.619 478.736 193.099 478.575C192.58 478.422 192.178 478.192 191.893 477.885C191.615 477.586 191.476 477.228 191.476 476.811C191.476 476.395 191.615 476.037 191.893 475.738C192.178 475.439 192.58 475.212 193.099 475.059C193.619 474.898 194.236 474.818 194.953 474.818ZM194.953 475.935C194.514 475.935 194.141 475.968 193.834 476.034C193.527 476.099 193.297 476.198 193.143 476.329C192.99 476.454 192.913 476.614 192.913 476.811C192.913 477.009 192.99 477.173 193.143 477.304C193.297 477.436 193.527 477.534 193.834 477.6C194.141 477.659 194.514 477.688 194.953 477.688C195.399 477.688 195.772 477.659 196.072 477.6C196.379 477.534 196.609 477.436 196.763 477.304C196.916 477.173 196.993 477.009 196.993 476.811C196.993 476.614 196.916 476.454 196.763 476.329C196.609 476.198 196.379 476.099 196.072 476.034C195.772 475.968 195.399 475.935 194.953 475.935Z" fill="#303030"/>
<path d="M202.761 469.363C203.266 469.363 203.716 469.513 204.11 469.812C204.513 470.104 204.823 470.524 205.043 471.072C205.269 471.612 205.383 472.251 205.383 472.989C205.383 473.733 205.269 474.38 205.043 474.927C204.823 475.468 204.513 475.888 204.11 476.187C203.716 476.479 203.266 476.625 202.761 476.625C202.257 476.625 201.807 476.479 201.412 476.187C201.017 475.888 200.707 475.468 200.48 474.927C200.253 474.38 200.14 473.733 200.14 472.989C200.14 472.251 200.253 471.612 200.48 471.072C200.707 470.524 201.017 470.104 201.412 469.812C201.807 469.513 202.257 469.363 202.761 469.363ZM202.761 470.688C202.52 470.688 202.304 470.776 202.114 470.951C201.931 471.126 201.789 471.386 201.686 471.729C201.584 472.065 201.533 472.485 201.533 472.989C201.533 473.485 201.584 473.909 201.686 474.259C201.789 474.602 201.931 474.862 202.114 475.037C202.304 475.212 202.52 475.3 202.761 475.3C203.017 475.3 203.237 475.212 203.419 475.037C203.602 474.862 203.745 474.602 203.847 474.259C203.949 473.909 204.001 473.485 204.001 472.989C204.001 472.485 203.949 472.065 203.847 471.729C203.745 471.386 203.602 471.126 203.419 470.951C203.237 470.776 203.017 470.688 202.761 470.688ZM207.05 468.651H208.509V478.827H207.05V468.651ZM204.955 472.32H207.664V473.482H204.955V472.32Z" fill="#303030"/>
<path d="M251.263 240.471H252.721V248.051H251.263V240.471ZM252.315 243.56H254.07V244.765H252.315V243.56ZM244.737 241.533H250.703V242.672H244.737V241.533ZM247.72 243.034C248.21 243.034 248.641 243.118 249.014 243.286C249.394 243.446 249.69 243.676 249.903 243.976C250.115 244.268 250.221 244.604 250.221 244.984C250.221 245.371 250.115 245.714 249.903 246.013C249.69 246.305 249.394 246.535 249.014 246.703C248.641 246.864 248.21 246.944 247.72 246.944C247.237 246.944 246.806 246.864 246.426 246.703C246.045 246.535 245.749 246.305 245.537 246.013C245.325 245.714 245.219 245.371 245.219 244.984C245.219 244.604 245.325 244.268 245.537 243.976C245.749 243.676 246.045 243.446 246.426 243.286C246.806 243.118 247.237 243.034 247.72 243.034ZM247.72 244.14C247.398 244.14 247.135 244.213 246.93 244.359C246.725 244.505 246.623 244.717 246.623 244.995C246.623 245.265 246.725 245.473 246.93 245.619C247.135 245.765 247.398 245.838 247.72 245.838C248.049 245.838 248.312 245.765 248.51 245.619C248.714 245.473 248.817 245.265 248.817 244.995C248.817 244.717 248.714 244.505 248.51 244.359C248.312 244.213 248.049 244.14 247.72 244.14ZM246.996 240.46H248.444V242.081H246.996V240.46ZM246.173 249.267H253.083V250.439H246.173V249.267ZM246.173 247.481H247.643V249.77H246.173V247.481Z" fill="#303030"/>
<path d="M254.815 245.477H264.017V246.627H254.815V245.477ZM258.808 246.199H260.266V248.335H258.808V246.199ZM255.945 240.887H262.844V244.666H255.945V240.887ZM261.407 242.026H257.382V243.516H261.407V242.026ZM255.879 249.267H262.997V250.439H255.879V249.267ZM255.879 247.481H257.338V249.661H255.879V247.481Z" fill="#303030"/>
<path d="M249.223 287.426H252.228V288.598H249.223V287.426ZM249.223 289.682H252.228V290.843H249.223V289.682ZM247.533 286.648C248.045 286.648 248.502 286.757 248.904 286.976C249.307 287.188 249.625 287.48 249.859 287.853C250.1 288.225 250.221 288.652 250.221 289.134C250.221 289.609 250.1 290.033 249.859 290.405C249.625 290.777 249.307 291.073 248.904 291.292C248.502 291.504 248.045 291.61 247.533 291.61C247.036 291.61 246.583 291.504 246.173 291.292C245.771 291.073 245.45 290.777 245.208 290.405C244.974 290.033 244.857 289.609 244.857 289.134C244.857 288.652 244.974 288.225 245.208 287.853C245.45 287.48 245.771 287.188 246.173 286.976C246.583 286.757 247.036 286.648 247.533 286.648ZM247.533 287.875C247.292 287.875 247.073 287.926 246.875 288.028C246.678 288.123 246.521 288.265 246.404 288.455C246.294 288.638 246.239 288.864 246.239 289.134C246.239 289.39 246.294 289.613 246.404 289.803C246.521 289.992 246.678 290.138 246.875 290.241C247.073 290.336 247.292 290.383 247.533 290.383C247.789 290.383 248.012 290.336 248.203 290.241C248.4 290.138 248.553 289.992 248.663 289.803C248.773 289.613 248.828 289.39 248.828 289.134C248.828 288.864 248.773 288.638 248.663 288.455C248.553 288.265 248.4 288.123 248.203 288.028C248.012 287.926 247.789 287.875 247.533 287.875ZM251.767 286.111H253.237V292.048H251.767V286.111ZM249.793 292.256C250.509 292.256 251.124 292.336 251.635 292.497C252.155 292.65 252.557 292.877 252.842 293.176C253.127 293.476 253.27 293.833 253.27 294.25C253.27 294.666 253.127 295.024 252.842 295.323C252.557 295.63 252.155 295.86 251.635 296.013C251.124 296.174 250.509 296.254 249.793 296.254C249.076 296.254 248.458 296.174 247.939 296.013C247.42 295.86 247.018 295.63 246.733 295.323C246.455 295.024 246.316 294.666 246.316 294.25C246.316 293.833 246.455 293.476 246.733 293.176C247.018 292.877 247.42 292.65 247.939 292.497C248.458 292.336 249.076 292.256 249.793 292.256ZM249.793 293.373C249.354 293.373 248.981 293.406 248.674 293.472C248.367 293.538 248.137 293.636 247.983 293.768C247.83 293.892 247.753 294.053 247.753 294.25C247.753 294.447 247.83 294.611 247.983 294.743C248.137 294.874 248.367 294.973 248.674 295.038C248.981 295.097 249.354 295.126 249.793 295.126C250.239 295.126 250.612 295.097 250.912 295.038C251.219 294.973 251.449 294.874 251.603 294.743C251.756 294.611 251.833 294.447 251.833 294.25C251.833 294.053 251.756 293.892 251.603 293.768C251.449 293.636 251.219 293.538 250.912 293.472C250.612 293.406 250.239 293.373 249.793 293.373Z" fill="#303030"/>
<path d="M257.601 286.801C258.106 286.801 258.555 286.951 258.95 287.25C259.352 287.542 259.663 287.962 259.883 288.51C260.109 289.05 260.223 289.689 260.223 290.427C260.223 291.172 260.109 291.818 259.883 292.366C259.663 292.906 259.352 293.326 258.95 293.625C258.555 293.917 258.106 294.064 257.601 294.064C257.097 294.064 256.647 293.917 256.252 293.625C255.857 293.326 255.547 292.906 255.32 292.366C255.093 291.818 254.98 291.172 254.98 290.427C254.98 289.689 255.093 289.05 255.32 288.51C255.547 287.962 255.857 287.542 256.252 287.25C256.647 286.951 257.097 286.801 257.601 286.801ZM257.601 288.127C257.36 288.127 257.144 288.214 256.954 288.389C256.771 288.565 256.629 288.824 256.526 289.167C256.424 289.503 256.373 289.923 256.373 290.427C256.373 290.923 256.424 291.347 256.526 291.698C256.629 292.041 256.771 292.3 256.954 292.475C257.144 292.65 257.36 292.738 257.601 292.738C257.857 292.738 258.076 292.65 258.259 292.475C258.442 292.3 258.585 292.041 258.687 291.698C258.789 291.347 258.841 290.923 258.841 290.427C258.841 289.923 258.789 289.503 258.687 289.167C258.585 288.824 258.442 288.565 258.259 288.389C258.076 288.214 257.857 288.127 257.601 288.127ZM261.89 286.089H263.348V296.265H261.89V286.089ZM259.795 289.759H262.504V290.92H259.795V289.759Z" fill="#303030"/>
<path d="M245.153 332.748H249.541V333.909H245.153V332.748ZM246.47 335.651H247.895V339.101H246.47V335.651ZM248.948 332.748H250.396V333.581C250.396 334.07 250.381 334.629 250.352 335.257C250.33 335.885 250.25 336.622 250.111 337.469L248.685 337.349C248.817 336.538 248.893 335.83 248.915 335.224C248.937 334.61 248.948 334.063 248.948 333.581V332.748ZM251.263 331.741H252.71V341.884H251.263V331.741ZM252.294 335.815H254.081V337.02H252.294V335.815ZM244.78 339.846L244.649 338.663C245.241 338.663 245.885 338.66 246.579 338.652C247.281 338.638 247.99 338.612 248.707 338.576C249.431 338.532 250.129 338.47 250.802 338.39L250.868 339.452C250.18 339.562 249.478 339.646 248.762 339.704C248.053 339.762 247.358 339.803 246.678 339.824C245.998 339.839 245.365 339.846 244.78 339.846Z" fill="#303030"/>
<path d="M254.826 332.628H260.793V333.778H254.826V332.628ZM257.81 334.096C258.3 334.096 258.731 334.176 259.104 334.337C259.484 334.497 259.78 334.716 259.992 334.994C260.204 335.271 260.31 335.6 260.31 335.98C260.31 336.345 260.204 336.67 259.992 336.955C259.78 337.232 259.484 337.451 259.104 337.612C258.731 337.765 258.3 337.842 257.81 337.842C257.327 337.842 256.896 337.765 256.515 337.612C256.135 337.451 255.839 337.232 255.627 336.955C255.415 336.67 255.309 336.345 255.309 335.98C255.309 335.6 255.415 335.271 255.627 334.994C255.839 334.716 256.135 334.497 256.515 334.337C256.896 334.176 257.327 334.096 257.81 334.096ZM257.81 335.202C257.488 335.202 257.225 335.268 257.02 335.399C256.815 335.523 256.713 335.717 256.713 335.98C256.713 336.228 256.815 336.418 257.02 336.549C257.225 336.681 257.488 336.746 257.81 336.746C258.139 336.746 258.402 336.681 258.599 336.549C258.804 336.418 258.906 336.228 258.906 335.98C258.906 335.717 258.804 335.523 258.599 335.399C258.402 335.268 258.139 335.202 257.81 335.202ZM261.352 331.752H262.811V338.105H261.352V331.752ZM262.416 334.359H264.16V335.552H262.416V334.359ZM256.033 338.532H262.811V341.895H261.352V339.682H256.033V338.532ZM257.086 331.686H258.533V333.296H257.086V331.686Z" fill="#303030"/>
<path d="M245.866 377.819H252.294V378.98H245.866V377.819ZM244.737 381.313H253.939V382.485H244.737V381.313ZM248.597 382.135H250.045V384.26H248.597V382.135ZM251.416 377.819H252.853V378.63C252.853 379.068 252.838 379.55 252.809 380.076C252.787 380.594 252.696 381.186 252.535 381.85L251.109 381.719C251.263 381.061 251.35 380.492 251.372 380.01C251.401 379.521 251.416 379.061 251.416 378.63V377.819ZM245.658 383.909H252.875V387.535H251.416V385.06H245.658V383.909Z" fill="#303030"/>
<path d="M257.601 378.082C258.106 378.082 258.555 378.232 258.95 378.531C259.352 378.823 259.663 379.243 259.883 379.791C260.109 380.331 260.223 380.97 260.223 381.708C260.223 382.453 260.109 383.099 259.883 383.647C259.663 384.187 259.352 384.607 258.95 384.906C258.555 385.198 258.106 385.344 257.601 385.344C257.097 385.344 256.647 385.198 256.252 384.906C255.857 384.607 255.547 384.187 255.32 383.647C255.093 383.099 254.98 382.453 254.98 381.708C254.98 380.97 255.093 380.331 255.32 379.791C255.547 379.243 255.857 378.823 256.252 378.531C256.647 378.232 257.097 378.082 257.601 378.082ZM257.601 379.407C257.36 379.407 257.144 379.495 256.954 379.67C256.771 379.846 256.629 380.105 256.526 380.448C256.424 380.784 256.373 381.204 256.373 381.708C256.373 382.204 256.424 382.628 256.526 382.978C256.629 383.322 256.771 383.581 256.954 383.756C257.144 383.931 257.36 384.019 257.601 384.019C257.857 384.019 258.076 383.931 258.259 383.756C258.442 383.581 258.585 383.322 258.687 382.978C258.789 382.628 258.841 382.204 258.841 381.708C258.841 381.204 258.789 380.784 258.687 380.448C258.585 380.105 258.442 379.846 258.259 379.67C258.076 379.495 257.857 379.407 257.601 379.407ZM261.89 377.37H263.348V387.546H261.89V377.37ZM259.795 381.04H262.504V382.201H259.795V381.04Z" fill="#303030"/>
<path d="M243.483 423.613H244.744V424.347C244.744 424.785 244.682 425.212 244.557 425.628C244.44 426.037 244.265 426.424 244.031 426.79C243.797 427.155 243.508 427.487 243.165 427.786C242.828 428.078 242.441 428.33 242.002 428.542C241.563 428.754 241.081 428.911 240.554 429.013L239.929 427.797C240.382 427.717 240.795 427.596 241.168 427.436C241.549 427.268 241.881 427.067 242.166 426.833C242.452 426.6 242.693 426.348 242.89 426.078C243.088 425.8 243.234 425.515 243.329 425.223C243.431 424.924 243.483 424.632 243.483 424.347V423.613ZM243.768 423.613H245.04V424.347C245.04 424.639 245.088 424.935 245.183 425.234C245.285 425.534 245.431 425.822 245.621 426.099C245.819 426.37 246.06 426.618 246.345 426.844C246.63 427.071 246.959 427.268 247.332 427.436C247.705 427.596 248.126 427.717 248.594 427.797L247.969 429.013C247.442 428.911 246.959 428.754 246.521 428.542C246.082 428.33 245.691 428.078 245.347 427.786C245.011 427.494 244.722 427.166 244.481 426.801C244.247 426.435 244.068 426.045 243.943 425.628C243.826 425.212 243.768 424.785 243.768 424.347V423.613ZM239.71 430.744H248.912V431.938H239.71V430.744Z" fill="#303030"/>
<path d="M249.799 430.853H259.001V432.036H249.799V430.853ZM253.649 428.553H255.097V431.379H253.649V428.553ZM250.501 423.854H258.245V425.026H250.501V423.854ZM250.556 427.896H258.212V429.046H250.556V427.896ZM251.883 424.818H253.342V428.027H251.883V424.818ZM255.404 424.818H256.863V428.027H255.404V424.818Z" fill="#303030"/>
<path d="M259.889 430.831H269.091V432.014H259.889V430.831ZM263.75 425.179H265.033V425.398C265.033 425.902 264.938 426.381 264.748 426.833C264.565 427.279 264.291 427.688 263.925 428.06C263.56 428.425 263.11 428.732 262.576 428.98C262.042 429.229 261.428 429.407 260.734 429.517L260.196 428.334C260.803 428.254 261.329 428.115 261.775 427.918C262.222 427.721 262.587 427.487 262.872 427.217C263.165 426.939 263.384 426.647 263.53 426.34C263.677 426.026 263.75 425.712 263.75 425.398V425.179ZM263.936 425.179H265.219V425.398C265.219 425.712 265.289 426.026 265.428 426.34C265.574 426.647 265.793 426.939 266.086 427.217C266.378 427.487 266.748 427.721 267.194 427.918C267.64 428.115 268.166 428.254 268.773 428.334L268.236 429.517C267.541 429.407 266.927 429.229 266.393 428.98C265.859 428.732 265.41 428.425 265.044 428.06C264.678 427.688 264.401 427.279 264.21 426.833C264.028 426.381 263.936 425.902 263.936 425.398V425.179ZM260.668 424.424H268.29V425.585H260.668V424.424ZM263.761 423.186H265.208V424.895H263.761V423.186Z" fill="#303030"/>
<path d="M248.564 468.958H249.837V469.44C249.837 469.827 249.775 470.203 249.65 470.568C249.533 470.926 249.358 471.262 249.124 471.576C248.89 471.89 248.605 472.171 248.268 472.419C247.932 472.667 247.541 472.879 247.095 473.054C246.656 473.222 246.173 473.35 245.647 473.438L245.077 472.266C245.545 472.207 245.961 472.109 246.327 471.97C246.7 471.831 247.025 471.667 247.303 471.477C247.588 471.287 247.822 471.079 248.005 470.853C248.188 470.626 248.327 470.393 248.422 470.152C248.517 469.911 248.564 469.673 248.564 469.44V468.958ZM248.839 468.958H250.111V469.44C250.111 469.673 250.158 469.911 250.254 470.152C250.349 470.393 250.487 470.626 250.67 470.853C250.853 471.079 251.083 471.287 251.361 471.477C251.646 471.667 251.972 471.831 252.337 471.97C252.71 472.109 253.131 472.207 253.599 472.266L253.028 473.438C252.495 473.35 252.008 473.222 251.57 473.054C251.131 472.879 250.743 472.667 250.407 472.419C250.071 472.163 249.786 471.879 249.552 471.565C249.318 471.251 249.138 470.915 249.014 470.557C248.897 470.199 248.839 469.827 248.839 469.44V468.958ZM248.564 475.092H250.023V478.816H248.564V475.092ZM244.737 474.172H253.928V475.355H244.737V474.172Z" fill="#303030"/>
<path d="M254.826 469.549H260.793V470.699H254.826V469.549ZM257.81 471.017C258.3 471.017 258.731 471.097 259.104 471.258C259.484 471.419 259.78 471.638 259.992 471.915C260.204 472.193 260.31 472.521 260.31 472.901C260.31 473.266 260.204 473.591 259.992 473.876C259.78 474.153 259.484 474.372 259.104 474.533C258.731 474.686 258.3 474.763 257.81 474.763C257.327 474.763 256.896 474.686 256.515 474.533C256.135 474.372 255.839 474.153 255.627 473.876C255.415 473.591 255.309 473.266 255.309 472.901C255.309 472.521 255.415 472.193 255.627 471.915C255.839 471.638 256.135 471.419 256.515 471.258C256.896 471.097 257.327 471.017 257.81 471.017ZM257.81 472.123C257.488 472.123 257.225 472.189 257.02 472.32C256.815 472.445 256.713 472.638 256.713 472.901C256.713 473.149 256.815 473.339 257.02 473.471C257.225 473.602 257.488 473.668 257.81 473.668C258.139 473.668 258.402 473.602 258.599 473.471C258.804 473.339 258.906 473.149 258.906 472.901C258.906 472.638 258.804 472.445 258.599 472.32C258.402 472.189 258.139 472.123 257.81 472.123ZM261.352 468.673H262.811V475.026H261.352V468.673ZM262.416 471.28H264.16V472.474H262.416V471.28ZM256.033 475.453H262.811V478.816H261.352V476.603H256.033V475.453ZM257.086 468.607H258.533V470.217H257.086V468.607Z" fill="#303030"/>
<path d="M251.734 513.846H253.193V523.989H251.734V513.846ZM248.74 514.897H250.177C250.177 515.672 250.1 516.413 249.946 517.121C249.8 517.822 249.552 518.483 249.201 519.104C248.857 519.724 248.382 520.301 247.775 520.834C247.175 521.36 246.426 521.842 245.526 522.28L244.759 521.13C245.738 520.655 246.517 520.133 247.095 519.564C247.68 518.987 248.1 518.337 248.356 517.614C248.612 516.884 248.74 516.066 248.74 515.16V514.897ZM245.307 514.897H249.42V516.059H245.307V514.897Z" fill="#303030"/>
<path d="M261.308 513.835H262.778V523.978H261.308V513.835ZM262.405 517.724H264.193V518.917H262.405V517.724ZM258.643 514.887H260.08C260.08 515.902 259.934 516.862 259.641 517.767C259.356 518.673 258.881 519.505 258.215 520.265C257.557 521.017 256.665 521.674 255.539 522.236L254.717 521.13C255.609 520.67 256.344 520.152 256.921 519.575C257.506 518.998 257.938 518.344 258.215 517.614C258.501 516.876 258.643 516.055 258.643 515.149V514.887ZM255.276 514.887H259.4V516.059H255.276V514.887Z" fill="#303030"/>
<path d="M303.404 240.755H304.677V241.237C304.677 241.624 304.615 242.001 304.49 242.366C304.373 242.724 304.198 243.059 303.964 243.373C303.73 243.687 303.445 243.969 303.108 244.217C302.772 244.465 302.381 244.677 301.935 244.852C301.496 245.02 301.013 245.148 300.487 245.236L299.917 244.064C300.385 244.005 300.801 243.907 301.167 243.768C301.54 243.629 301.865 243.465 302.143 243.275C302.428 243.085 302.662 242.877 302.845 242.65C303.028 242.424 303.167 242.19 303.262 241.949C303.357 241.708 303.404 241.471 303.404 241.237V240.755ZM303.679 240.755H304.951V241.237C304.951 241.471 304.998 241.708 305.093 241.949C305.188 242.19 305.327 242.424 305.51 242.65C305.693 242.877 305.923 243.085 306.201 243.275C306.486 243.465 306.812 243.629 307.177 243.768C307.55 243.907 307.971 244.005 308.439 244.064L307.868 245.236C307.335 245.148 306.848 245.02 306.41 244.852C305.971 244.677 305.583 244.465 305.247 244.217C304.911 243.961 304.625 243.676 304.391 243.362C304.158 243.048 303.978 242.713 303.854 242.355C303.737 241.997 303.679 241.624 303.679 241.237V240.755ZM303.404 246.89H304.863V250.614H303.404V246.89ZM299.577 245.969H308.768V247.152H299.577V245.969Z" fill="#303030"/>
<path d="M309.666 241.347H315.633V242.497H309.666V241.347ZM312.65 242.815C313.139 242.815 313.571 242.895 313.944 243.056C314.324 243.216 314.62 243.435 314.832 243.713C315.044 243.99 315.15 244.319 315.15 244.699C315.15 245.064 315.044 245.389 314.832 245.674C314.62 245.951 314.324 246.17 313.944 246.331C313.571 246.484 313.139 246.561 312.65 246.561C312.167 246.561 311.736 246.484 311.355 246.331C310.975 246.17 310.679 245.951 310.467 245.674C310.255 245.389 310.149 245.064 310.149 244.699C310.149 244.319 310.255 243.99 310.467 243.713C310.679 243.435 310.975 243.216 311.355 243.056C311.736 242.895 312.167 242.815 312.65 242.815ZM312.65 243.921C312.328 243.921 312.065 243.987 311.86 244.118C311.655 244.242 311.553 244.436 311.553 244.699C311.553 244.947 311.655 245.137 311.86 245.268C312.065 245.4 312.328 245.466 312.65 245.466C312.979 245.466 313.242 245.4 313.439 245.268C313.644 245.137 313.746 244.947 313.746 244.699C313.746 244.436 313.644 244.242 313.439 244.118C313.242 243.987 312.979 243.921 312.65 243.921ZM316.192 240.471H317.651V246.824H316.192V240.471ZM317.256 243.078H319V244.272H317.256V243.078ZM310.873 247.251H317.651V250.614H316.192V248.401H310.873V247.251ZM311.926 240.405H313.373V242.015H311.926V240.405Z" fill="#303030"/>
<path d="M304.161 286.297C304.914 286.297 305.565 286.378 306.113 286.538C306.662 286.692 307.086 286.918 307.386 287.217C307.693 287.51 307.846 287.86 307.846 288.269C307.846 288.678 307.693 289.032 307.386 289.332C307.086 289.624 306.662 289.85 306.113 290.011C305.565 290.171 304.914 290.252 304.161 290.252C303.423 290.252 302.776 290.171 302.22 290.011C301.664 289.85 301.236 289.624 300.937 289.332C300.637 289.032 300.487 288.678 300.487 288.269C300.487 287.86 300.637 287.51 300.937 287.217C301.236 286.918 301.664 286.692 302.22 286.538C302.776 286.378 303.423 286.297 304.161 286.297ZM304.161 287.415C303.708 287.415 303.317 287.447 302.988 287.513C302.659 287.572 302.41 287.663 302.242 287.787C302.081 287.911 302 288.072 302 288.269C302 288.459 302.081 288.62 302.242 288.751C302.41 288.875 302.659 288.97 302.988 289.036C303.317 289.094 303.708 289.123 304.161 289.123C304.629 289.123 305.024 289.094 305.346 289.036C305.667 288.97 305.912 288.875 306.081 288.751C306.249 288.62 306.333 288.459 306.333 288.269C306.333 288.072 306.249 287.911 306.081 287.787C305.912 287.663 305.667 287.572 305.346 287.513C305.024 287.447 304.629 287.415 304.161 287.415ZM300.64 292.683H307.66V296.145H300.64V292.683ZM306.234 293.833H302.066V294.995H306.234V293.833ZM299.566 290.832H308.757V291.971H299.566V290.832Z" fill="#303030"/>
<path d="M312.485 286.659C313.011 286.659 313.483 286.768 313.9 286.987C314.317 287.199 314.646 287.491 314.887 287.864C315.128 288.229 315.249 288.652 315.249 289.134C315.249 289.624 315.128 290.054 314.887 290.427C314.646 290.799 314.317 291.091 313.9 291.303C313.483 291.515 313.011 291.621 312.485 291.621C311.966 291.621 311.498 291.515 311.081 291.303C310.664 291.091 310.335 290.799 310.094 290.427C309.853 290.054 309.732 289.624 309.732 289.134C309.732 288.652 309.853 288.229 310.094 287.864C310.335 287.491 310.664 287.199 311.081 286.987C311.498 286.768 311.966 286.659 312.485 286.659ZM312.485 287.886C312.236 287.886 312.01 287.937 311.805 288.039C311.6 288.134 311.439 288.276 311.322 288.466C311.213 288.649 311.158 288.871 311.158 289.134C311.158 289.405 311.213 289.635 311.322 289.824C311.439 290.007 311.6 290.149 311.805 290.252C312.01 290.347 312.236 290.394 312.485 290.394C312.748 290.394 312.979 290.347 313.176 290.252C313.373 290.149 313.531 290.007 313.648 289.824C313.765 289.635 313.823 289.405 313.823 289.134C313.823 288.871 313.765 288.649 313.648 288.466C313.531 288.276 313.373 288.134 313.176 288.039C312.979 287.937 312.748 287.886 312.485 287.886ZM316.192 286.111H317.651V292.037H316.192V286.111ZM317.256 288.466H319V289.671H317.256V288.466ZM310.873 292.475H317.651V296.254H316.192V293.625H310.873V292.475Z" fill="#303030"/>
<path d="M302.033 332.88H303.24V333.734C303.24 334.369 303.134 334.976 302.922 335.552C302.717 336.122 302.403 336.622 301.979 337.053C301.554 337.477 301.013 337.794 300.355 338.006L299.609 336.867C300.18 336.684 300.64 336.429 300.991 336.1C301.35 335.772 301.613 335.403 301.781 334.994C301.949 334.578 302.033 334.158 302.033 333.734V332.88ZM302.34 332.88H303.525V333.734C303.525 334.034 303.573 334.333 303.668 334.632C303.763 334.924 303.905 335.206 304.095 335.476C304.293 335.739 304.541 335.976 304.841 336.188C305.141 336.4 305.496 336.571 305.905 336.703L305.17 337.831C304.534 337.626 304.008 337.32 303.591 336.911C303.174 336.502 302.86 336.024 302.648 335.476C302.443 334.921 302.34 334.34 302.34 333.734V332.88ZM300.004 332.464H305.532V333.625H300.004V332.464ZM306.552 331.752H308.011V339.069H306.552V331.752ZM301.244 340.547H308.274V341.719H301.244V340.547ZM301.244 338.411H302.702V341.128H301.244V338.411Z" fill="#303030"/>
<path d="M312.123 332.792H313.33V333.427C313.33 334.063 313.224 334.669 313.011 335.246C312.807 335.815 312.492 336.312 312.068 336.735C311.644 337.159 311.103 337.477 310.445 337.688L309.699 336.56C310.269 336.378 310.73 336.122 311.081 335.793C311.439 335.458 311.703 335.085 311.871 334.676C312.039 334.26 312.123 333.844 312.123 333.427V332.792ZM312.43 332.792H313.615V333.427C313.615 333.727 313.662 334.026 313.757 334.326C313.852 334.618 313.995 334.895 314.185 335.158C314.382 335.421 314.631 335.658 314.931 335.87C315.231 336.082 315.585 336.254 315.995 336.385L315.26 337.524C314.624 337.32 314.097 337.013 313.681 336.604C313.264 336.195 312.949 335.717 312.737 335.169C312.533 334.614 312.43 334.034 312.43 333.427V332.792ZM316.642 331.741H318.101V337.864H316.642V331.741ZM311.18 338.313H318.101V341.895H316.642V339.463H311.18V338.313ZM310.094 332.343H315.622V333.493H310.094V332.343Z" fill="#303030"/>
<path d="M303.711 381.226H305.313V382.409H303.711V381.226ZM301.342 380.207H302.45V380.47C302.45 380.996 302.406 381.518 302.319 382.036C302.238 382.548 302.106 383.033 301.924 383.493C301.748 383.946 301.518 384.359 301.233 384.731C300.955 385.096 300.611 385.395 300.202 385.629L299.39 384.534C299.748 384.322 300.052 384.066 300.3 383.767C300.549 383.46 300.75 383.128 300.904 382.77C301.065 382.405 301.178 382.029 301.244 381.642C301.309 381.248 301.342 380.857 301.342 380.47V380.207ZM301.628 380.207H302.735V380.47C302.735 380.842 302.768 381.218 302.834 381.598C302.907 381.978 303.02 382.336 303.174 382.672C303.328 383.008 303.529 383.318 303.777 383.603C304.026 383.88 304.329 384.114 304.688 384.304L303.898 385.388C303.357 385.103 302.918 384.709 302.582 384.205C302.245 383.694 302 383.117 301.847 382.475C301.701 381.825 301.628 381.156 301.628 380.47V380.207ZM299.763 379.09H304.293V380.262H299.763V379.09ZM301.342 377.721H302.735V380.032H301.342V377.721ZM306.903 377.381H308.296V387.524H306.903V377.381ZM304.852 377.545H306.212V387.064H304.852V377.545Z" fill="#303030"/>
<path d="M311.827 382.683H313.275V384.676H311.827V382.683ZM315.216 382.672H316.664V384.665H315.216V382.672ZM309.655 382.113H318.846V383.263H309.655V382.113ZM310.675 384.205H317.739V387.535H316.28V385.344H310.675V384.205ZM314.251 377.589C314.997 377.589 315.644 377.669 316.192 377.83C316.748 377.991 317.176 378.221 317.475 378.52C317.783 378.812 317.936 379.166 317.936 379.583C317.936 379.992 317.783 380.346 317.475 380.645C317.176 380.945 316.748 381.175 316.192 381.335C315.644 381.496 314.997 381.576 314.251 381.576C313.512 381.576 312.865 381.496 312.31 381.335C311.761 381.175 311.333 380.945 311.026 380.645C310.726 380.346 310.577 379.992 310.577 379.583C310.577 379.166 310.726 378.812 311.026 378.52C311.333 378.221 311.761 377.991 312.31 377.83C312.865 377.669 313.512 377.589 314.251 377.589ZM314.251 378.706C313.798 378.706 313.406 378.739 313.077 378.805C312.748 378.863 312.5 378.958 312.331 379.09C312.171 379.221 312.09 379.386 312.09 379.583C312.09 379.773 312.171 379.933 312.331 380.065C312.5 380.196 312.748 380.295 313.077 380.36C313.406 380.419 313.798 380.448 314.251 380.448C314.719 380.448 315.114 380.419 315.435 380.36C315.757 380.295 316.002 380.196 316.17 380.065C316.338 379.933 316.423 379.773 316.423 379.583C316.423 379.386 316.338 379.221 316.17 379.09C316.002 378.958 315.757 378.863 315.435 378.805C315.114 378.739 314.719 378.706 314.251 378.706Z" fill="#303030"/>
<path d="M301.858 423.81H303.031V425.278C303.031 425.906 302.977 426.519 302.867 427.118C302.757 427.71 302.585 428.261 302.351 428.772C302.125 429.283 301.836 429.74 301.485 430.141C301.134 430.536 300.721 430.85 300.246 431.083L299.368 429.911C299.8 429.714 300.169 429.451 300.476 429.123C300.79 428.794 301.05 428.422 301.255 428.005C301.459 427.589 301.609 427.151 301.704 426.691C301.807 426.224 301.858 425.753 301.858 425.278V423.81ZM302.143 423.81H303.317V425.278C303.317 425.738 303.36 426.191 303.448 426.636C303.543 427.082 303.686 427.505 303.876 427.907C304.073 428.301 304.318 428.655 304.611 428.969C304.903 429.283 305.254 429.543 305.664 429.747L304.775 430.908C304.322 430.674 303.927 430.368 303.591 429.988C303.262 429.601 302.991 429.159 302.779 428.663C302.567 428.159 302.406 427.622 302.297 427.052C302.194 426.476 302.143 425.884 302.143 425.278V423.81ZM306.059 423.032H307.528V433.176H306.059V423.032ZM307.21 426.932H308.998V428.137H307.21V426.932Z" fill="#303030"/>
<path d="M312.233 429.199H313.691V430.842H312.233V429.199ZM316.675 423.032H318.134V433.176H316.675V423.032ZM309.886 431.489L309.71 430.306C310.324 430.306 310.993 430.302 311.717 430.295C312.441 430.287 313.183 430.262 313.944 430.218C314.712 430.174 315.45 430.105 316.159 430.01L316.258 431.061C315.519 431.193 314.774 431.292 314.021 431.357C313.275 431.416 312.551 431.452 311.849 431.467C311.147 431.481 310.492 431.489 309.886 431.489ZM309.908 424.15H316.028V425.289H309.908V424.15ZM312.968 425.683C313.465 425.683 313.904 425.764 314.284 425.924C314.664 426.085 314.96 426.308 315.172 426.592C315.392 426.877 315.501 427.209 315.501 427.589C315.501 427.962 315.392 428.294 315.172 428.586C314.96 428.871 314.664 429.093 314.284 429.254C313.904 429.415 313.465 429.495 312.968 429.495C312.47 429.495 312.032 429.415 311.651 429.254C311.271 429.093 310.971 428.871 310.752 428.586C310.54 428.294 310.434 427.962 310.434 427.589C310.434 427.209 310.54 426.877 310.752 426.592C310.971 426.308 311.271 426.085 311.651 425.924C312.032 425.764 312.47 425.683 312.968 425.683ZM312.968 426.779C312.631 426.779 312.357 426.852 312.145 426.998C311.933 427.136 311.827 427.334 311.827 427.589C311.827 427.852 311.933 428.053 312.145 428.192C312.357 428.33 312.631 428.4 312.968 428.4C313.304 428.4 313.578 428.33 313.79 428.192C314.002 428.053 314.108 427.852 314.108 427.589C314.108 427.334 314.002 427.136 313.79 426.998C313.578 426.852 313.304 426.779 312.968 426.779ZM312.233 423.065H313.702V424.807H312.233V423.065Z" fill="#303030"/>
<path d="M136.186 286.538H142.614V287.699H136.186V286.538ZM135.057 290.033H144.259V291.205H135.057V290.033ZM138.918 290.854H140.365V292.979H138.918V290.854ZM141.736 286.538H143.173V287.349C143.173 287.787 143.158 288.269 143.129 288.795C143.107 289.313 143.016 289.905 142.855 290.569L141.429 290.438C141.583 289.781 141.67 289.211 141.692 288.729C141.722 288.24 141.736 287.78 141.736 287.349V286.538ZM135.978 292.629H143.195V296.254H141.736V293.779H135.978V292.629Z" fill="#303030"/>
<path d="M147.921 286.801C148.426 286.801 148.876 286.951 149.27 287.25C149.673 287.542 149.983 287.962 150.203 288.51C150.429 289.05 150.543 289.689 150.543 290.427C150.543 291.172 150.429 291.818 150.203 292.366C149.983 292.906 149.673 293.326 149.27 293.625C148.876 293.917 148.426 294.064 147.921 294.064C147.417 294.064 146.967 293.917 146.572 293.625C146.177 293.326 145.867 292.906 145.64 292.366C145.413 291.818 145.3 291.172 145.3 290.427C145.3 289.689 145.413 289.05 145.64 288.51C145.867 287.962 146.177 287.542 146.572 287.25C146.967 286.951 147.417 286.801 147.921 286.801ZM147.921 288.127C147.68 288.127 147.464 288.214 147.274 288.389C147.091 288.565 146.949 288.824 146.846 289.167C146.744 289.503 146.693 289.923 146.693 290.427C146.693 290.923 146.744 291.347 146.846 291.698C146.949 292.041 147.091 292.3 147.274 292.475C147.464 292.65 147.68 292.738 147.921 292.738C148.177 292.738 148.397 292.65 148.579 292.475C148.762 292.3 148.905 292.041 149.007 291.698C149.11 291.347 149.161 290.923 149.161 290.427C149.161 289.923 149.11 289.503 149.007 289.167C148.905 288.824 148.762 288.565 148.579 288.389C148.397 288.214 148.177 288.127 147.921 288.127ZM152.21 286.089H153.669V296.265H152.21V286.089ZM150.115 289.759H152.824V290.92H150.115V289.759Z" fill="#303030"/>
<path d="M81.3466 286.538H87.7738V287.699H81.3466V286.538ZM80.2169 290.033H89.419V291.205H80.2169V290.033ZM84.0776 290.854H85.5254V292.979H84.0776V290.854ZM86.8964 286.538H88.3332V287.349C88.3332 287.787 88.3185 288.269 88.2893 288.795C88.2674 289.313 88.176 289.905 88.0151 290.569L86.5893 290.438C86.7428 289.781 86.8306 289.211 86.8525 288.729C86.8817 288.24 86.8964 287.78 86.8964 287.349V286.538ZM81.1382 292.629H88.3551V296.254H86.8964V293.779H81.1382V292.629Z" fill="#303030"/>
<path d="M93.0815 286.801C93.586 286.801 94.0357 286.951 94.4305 287.25C94.8327 287.542 95.1434 287.962 95.3628 288.51C95.5895 289.05 95.7028 289.689 95.7028 290.427C95.7028 291.172 95.5895 291.818 95.3628 292.366C95.1434 292.906 94.8327 293.326 94.4305 293.625C94.0357 293.917 93.586 294.064 93.0815 294.064C92.5769 294.064 92.1272 293.917 91.7324 293.625C91.3375 293.326 91.0268 292.906 90.8001 292.366C90.5734 291.818 90.4601 291.172 90.4601 290.427C90.4601 289.689 90.5734 289.05 90.8001 288.51C91.0268 287.962 91.3375 287.542 91.7324 287.25C92.1272 286.951 92.5769 286.801 93.0815 286.801ZM93.0815 288.127C92.8402 288.127 92.6245 288.214 92.4343 288.389C92.2515 288.565 92.109 288.824 92.0066 289.167C91.9042 289.503 91.853 289.923 91.853 290.427C91.853 290.923 91.9042 291.347 92.0066 291.698C92.109 292.041 92.2515 292.3 92.4343 292.475C92.6245 292.65 92.8402 292.738 93.0815 292.738C93.3374 292.738 93.5567 292.65 93.7395 292.475C93.9223 292.3 94.0649 292.041 94.1673 291.698C94.2696 291.347 94.3208 290.923 94.3208 290.427C94.3208 289.923 94.2696 289.503 94.1673 289.167C94.0649 288.824 93.9223 288.565 93.7395 288.389C93.5567 288.214 93.3374 288.127 93.0815 288.127ZM97.3699 286.089H98.8287V296.265H97.3699V286.089ZM95.275 289.759H97.9841V290.92H95.275V289.759Z" fill="#303030"/>
<path d="M80.6336 332.748H85.0208V333.909H80.6336V332.748ZM81.9498 335.651H83.3756V339.101H81.9498V335.651ZM84.4286 332.748H85.8763V333.581C85.8763 334.07 85.8617 334.629 85.8325 335.257C85.8105 335.885 85.7301 336.622 85.5912 337.469L84.1653 337.349C84.2969 336.538 84.3737 335.83 84.3957 335.224C84.4176 334.61 84.4286 334.063 84.4286 333.581V332.748ZM86.7428 331.741H88.1906V341.884H86.7428V331.741ZM87.7738 335.815H89.5616V337.02H87.7738V335.815ZM80.2607 339.846L80.1291 338.663C80.7214 338.663 81.3648 338.66 82.0595 338.652C82.7614 338.638 83.4707 338.612 84.1873 338.576C84.9112 338.532 85.6095 338.47 86.2822 338.39L86.348 339.452C85.6606 339.562 84.9587 339.646 84.2421 339.704C83.5328 339.762 82.8382 339.803 82.1582 339.824C81.4782 339.839 80.8457 339.846 80.2607 339.846Z" fill="#303030"/>
<path d="M90.3065 332.628H96.2731V333.778H90.3065V332.628ZM93.2898 334.096C93.7797 334.096 94.2112 334.176 94.5841 334.337C94.9643 334.497 95.2604 334.716 95.4725 334.994C95.6845 335.271 95.7905 335.6 95.7905 335.98C95.7905 336.345 95.6845 336.67 95.4725 336.955C95.2604 337.232 94.9643 337.451 94.5841 337.612C94.2112 337.765 93.7797 337.842 93.2898 337.842C92.8072 337.842 92.3758 337.765 91.9956 337.612C91.6154 337.451 91.3193 337.232 91.1072 336.955C90.8952 336.67 90.7891 336.345 90.7891 335.98C90.7891 335.6 90.8952 335.271 91.1072 334.994C91.3193 334.716 91.6154 334.497 91.9956 334.337C92.3758 334.176 92.8072 334.096 93.2898 334.096ZM93.2898 335.202C92.9681 335.202 92.7049 335.268 92.5001 335.399C92.2954 335.523 92.193 335.717 92.193 335.98C92.193 336.228 92.2954 336.418 92.5001 336.549C92.7049 336.681 92.9681 336.746 93.2898 336.746C93.6189 336.746 93.8821 336.681 94.0795 336.549C94.2843 336.418 94.3866 336.228 94.3866 335.98C94.3866 335.717 94.2843 335.523 94.0795 335.399C93.8821 335.268 93.6189 335.202 93.2898 335.202ZM96.8325 331.752H98.2912V338.105H96.8325V331.752ZM97.8964 334.359H99.6403V335.552H97.8964V334.359ZM91.513 338.532H98.2912V341.895H96.8325V339.682H91.513V338.532ZM92.566 331.686H94.0137V333.296H92.566V331.686Z" fill="#303030"/>
<path d="M82.4982 378.17H83.6718V379.637C83.6718 380.266 83.6169 380.879 83.5073 381.478C83.3976 382.069 83.2257 382.621 82.9918 383.132C82.7651 383.643 82.4763 384.099 82.1253 384.501C81.7743 384.895 81.3612 385.209 80.8859 385.443L80.0085 384.271C80.4399 384.074 80.8091 383.811 81.1162 383.482C81.4307 383.154 81.6902 382.781 81.895 382.365C82.0997 381.949 82.2496 381.511 82.3446 381.051C82.447 380.583 82.4982 380.112 82.4982 379.637V378.17ZM82.7834 378.17H83.9569V379.637C83.9569 380.098 84.0008 380.55 84.0886 380.996C84.1836 381.441 84.3262 381.865 84.5163 382.266C84.7137 382.661 84.9587 383.015 85.2512 383.329C85.5436 383.643 85.8946 383.902 86.3041 384.107L85.4157 385.268C84.9623 385.034 84.5675 384.727 84.2311 384.348C83.9021 383.961 83.6316 383.519 83.4195 383.022C83.2075 382.518 83.0466 381.982 82.9369 381.412C82.8346 380.835 82.7834 380.244 82.7834 379.637V378.17ZM86.6989 377.392H88.1687V387.535H86.6989V377.392ZM87.8506 381.292H89.6384V382.496H87.8506V381.292Z" fill="#303030"/>
<path d="M92.8731 383.559H94.3318V385.202H92.8731V383.559ZM97.3151 377.392H98.7738V387.535H97.3151V377.392ZM90.5259 385.848L90.3504 384.665C90.9646 384.665 91.6337 384.662 92.3576 384.654C93.0815 384.647 93.8236 384.621 94.5841 384.578C95.3518 384.534 96.0903 384.464 96.7996 384.369L96.8983 385.421C96.1598 385.553 95.414 385.651 94.6608 385.717C93.915 385.775 93.1911 385.812 92.4892 385.826C91.7872 385.841 91.1328 385.848 90.5259 385.848ZM90.5478 378.509H96.668V379.648H90.5478V378.509ZM93.6079 380.043C94.1051 380.043 94.5438 380.123 94.9241 380.284C95.3043 380.444 95.6004 380.667 95.8125 380.952C96.0318 381.237 96.1415 381.569 96.1415 381.949C96.1415 382.321 96.0318 382.653 95.8125 382.946C95.6004 383.23 95.3043 383.453 94.9241 383.614C94.5438 383.774 94.1051 383.855 93.6079 383.855C93.1107 383.855 92.672 383.774 92.2918 383.614C91.9115 383.453 91.6117 383.23 91.3924 382.946C91.1803 382.653 91.0743 382.321 91.0743 381.949C91.0743 381.569 91.1803 381.237 91.3924 380.952C91.6117 380.667 91.9115 380.444 92.2918 380.284C92.672 380.123 93.1107 380.043 93.6079 380.043ZM93.6079 381.138C93.2716 381.138 92.9974 381.211 92.7853 381.357C92.5733 381.496 92.4672 381.693 92.4672 381.949C92.4672 382.212 92.5733 382.412 92.7853 382.551C92.9974 382.69 93.2716 382.759 93.6079 382.759C93.9443 382.759 94.2185 382.69 94.4305 382.551C94.6426 382.412 94.7486 382.212 94.7486 381.949C94.7486 381.693 94.6426 381.496 94.4305 381.357C94.2185 381.211 93.9443 381.138 93.6079 381.138ZM92.8731 377.425H94.3428V379.166H92.8731V377.425Z" fill="#303030"/>
<path d="M84.7028 424.347H87.708V425.519H84.7028V424.347ZM84.7028 426.603H87.708V427.764H84.7028V426.603ZM83.0137 423.569C83.5255 423.569 83.9825 423.679 84.3847 423.898C84.7869 424.11 85.1049 424.402 85.3389 424.774C85.5802 425.146 85.7009 425.574 85.7009 426.056C85.7009 426.53 85.5802 426.954 85.3389 427.326C85.1049 427.699 84.7869 427.994 84.3847 428.214C83.9825 428.425 83.5255 428.531 83.0137 428.531C82.5165 428.531 82.0631 428.425 81.6537 428.214C81.2515 427.994 80.9298 427.699 80.6885 427.326C80.4545 426.954 80.3375 426.53 80.3375 426.056C80.3375 425.574 80.4545 425.146 80.6885 424.774C80.9298 424.402 81.2515 424.11 81.6537 423.898C82.0631 423.679 82.5165 423.569 83.0137 423.569ZM83.0137 424.796C82.7724 424.796 82.553 424.847 82.3556 424.949C82.1582 425.044 82.001 425.187 81.884 425.377C81.7743 425.559 81.7195 425.785 81.7195 426.056C81.7195 426.311 81.7743 426.534 81.884 426.724C82.001 426.914 82.1582 427.06 82.3556 427.162C82.553 427.257 82.7724 427.304 83.0137 427.304C83.2696 427.304 83.4926 427.257 83.6827 427.162C83.8802 427.06 84.0337 426.914 84.1434 426.724C84.2531 426.534 84.3079 426.311 84.3079 426.056C84.3079 425.785 84.2531 425.559 84.1434 425.377C84.0337 425.187 83.8802 425.044 83.6827 424.949C83.4926 424.847 83.2696 424.796 83.0137 424.796ZM87.2473 423.032H88.7171V428.969H87.2473V423.032ZM85.2731 429.177C85.9897 429.177 86.6039 429.258 87.1157 429.418C87.6349 429.572 88.037 429.798 88.3222 430.098C88.6074 430.397 88.75 430.755 88.75 431.171C88.75 431.587 88.6074 431.945 88.3222 432.244C88.037 432.551 87.6349 432.781 87.1157 432.935C86.6039 433.095 85.9897 433.176 85.2731 433.176C84.5565 433.176 83.9387 433.095 83.4195 432.935C82.9004 432.781 82.4982 432.551 82.213 432.244C81.9352 431.945 81.7963 431.587 81.7963 431.171C81.7963 430.755 81.9352 430.397 82.213 430.098C82.4982 429.798 82.9004 429.572 83.4195 429.418C83.9387 429.258 84.5565 429.177 85.2731 429.177ZM85.2731 430.295C84.8344 430.295 84.4615 430.328 84.1544 430.393C83.8473 430.459 83.6169 430.558 83.4634 430.689C83.3098 430.813 83.2331 430.974 83.2331 431.171C83.2331 431.368 83.3098 431.533 83.4634 431.664C83.6169 431.795 83.8473 431.894 84.1544 431.96C84.4615 432.018 84.8344 432.047 85.2731 432.047C85.7191 432.047 86.092 432.018 86.3918 431.96C86.6989 431.894 86.9293 431.795 87.0828 431.664C87.2364 431.533 87.3131 431.368 87.3131 431.171C87.3131 430.974 87.2364 430.813 87.0828 430.689C86.9293 430.558 86.6989 430.459 86.3918 430.393C86.092 430.328 85.7191 430.295 85.2731 430.295Z" fill="#303030"/>
<path d="M93.0815 423.723C93.586 423.723 94.0357 423.872 94.4305 424.172C94.8327 424.464 95.1434 424.884 95.3628 425.431C95.5895 425.972 95.7028 426.611 95.7028 427.348C95.7028 428.093 95.5895 428.739 95.3628 429.287C95.1434 429.827 94.8327 430.247 94.4305 430.547C94.0357 430.839 93.586 430.985 93.0815 430.985C92.5769 430.985 92.1272 430.839 91.7324 430.547C91.3375 430.247 91.0268 429.827 90.8001 429.287C90.5734 428.739 90.4601 428.093 90.4601 427.348C90.4601 426.611 90.5734 425.972 90.8001 425.431C91.0268 424.884 91.3375 424.464 91.7324 424.172C92.1272 423.872 92.5769 423.723 93.0815 423.723ZM93.0815 425.048C92.8402 425.048 92.6245 425.136 92.4343 425.311C92.2515 425.486 92.109 425.745 92.0066 426.089C91.9042 426.424 91.853 426.844 91.853 427.348C91.853 427.845 91.9042 428.268 92.0066 428.619C92.109 428.962 92.2515 429.221 92.4343 429.397C92.6245 429.572 92.8402 429.659 93.0815 429.659C93.3374 429.659 93.5567 429.572 93.7395 429.397C93.9223 429.221 94.0649 428.962 94.1673 428.619C94.2696 428.268 94.3208 427.845 94.3208 427.348C94.3208 426.844 94.2696 426.424 94.1673 426.089C94.0649 425.745 93.9223 425.486 93.7395 425.311C93.5567 425.136 93.3374 425.048 93.0815 425.048ZM97.3699 423.011H98.8287V433.187H97.3699V423.011ZM95.275 426.68H97.9841V427.841H95.275V426.68Z" fill="#303030"/>
<path d="M82.4872 470.447H83.6718V470.82C83.6718 471.411 83.5694 471.97 83.3647 472.496C83.1599 473.014 82.8455 473.467 82.4214 473.854C82.0046 474.241 81.4709 474.529 80.8201 474.719L80.1401 473.58C80.6885 473.427 81.1345 473.208 81.4782 472.923C81.8292 472.638 82.0851 472.313 82.2459 471.948C82.4068 471.576 82.4872 471.2 82.4872 470.82V470.447ZM82.7614 470.447H83.946V470.82C83.946 471.163 84.0264 471.503 84.1873 471.838C84.3554 472.167 84.6114 472.463 84.955 472.726C85.2987 472.989 85.7411 473.193 86.2822 473.339L85.6241 474.467C84.9806 474.292 84.4468 474.026 84.0228 473.668C83.5987 473.303 83.2806 472.875 83.0685 472.386C82.8638 471.897 82.7614 471.375 82.7614 470.82V470.447ZM80.4911 469.724H85.9531V470.864H80.4911V469.724ZM82.4872 468.629H83.946V470.174H82.4872V468.629ZM86.7428 468.673H88.2016V474.785H86.7428V468.673ZM87.8067 471.039H89.5506V472.244H87.8067V471.039ZM84.8892 474.971C85.5985 474.971 86.209 475.048 86.7209 475.201C87.2327 475.355 87.6276 475.574 87.9054 475.858C88.1833 476.143 88.3222 476.49 88.3222 476.899C88.3222 477.498 88.0151 477.965 87.4009 478.301C86.794 478.644 85.9568 478.816 84.8892 478.816C84.18 478.816 83.5694 478.739 83.0576 478.586C82.5457 478.433 82.1472 478.214 81.8621 477.929C81.5842 477.644 81.4453 477.301 81.4453 476.899C81.4453 476.49 81.5842 476.143 81.8621 475.858C82.1472 475.574 82.5457 475.355 83.0576 475.201C83.5694 475.048 84.18 474.971 84.8892 474.971ZM84.8892 476.078C84.4578 476.078 84.0922 476.107 83.7924 476.165C83.4999 476.224 83.2769 476.315 83.1234 476.439C82.9771 476.556 82.904 476.709 82.904 476.899C82.904 477.074 82.9771 477.224 83.1234 477.348C83.2769 477.465 83.4999 477.553 83.7924 477.611C84.0922 477.67 84.4578 477.699 84.8892 477.699C85.3206 477.699 85.6826 477.67 85.9751 477.611C86.2748 477.553 86.4979 477.465 86.6441 477.348C86.7977 477.224 86.8744 477.074 86.8744 476.899C86.8744 476.709 86.7977 476.556 86.6441 476.439C86.4979 476.315 86.2748 476.224 85.9751 476.165C85.6826 476.107 85.3206 476.078 84.8892 476.078Z" fill="#303030"/>
<path d="M94.4415 472.507H96.0428V473.69H94.4415V472.507ZM92.0724 471.488H93.1802V471.751C93.1802 472.277 93.1363 472.799 93.0485 473.317C92.9681 473.828 92.8365 474.314 92.6537 474.774C92.4782 475.227 92.2479 475.639 91.9627 476.012C91.6849 476.377 91.3412 476.676 90.9317 476.91L90.1201 475.815C90.4784 475.603 90.7818 475.347 91.0304 475.048C91.279 474.741 91.4801 474.409 91.6337 474.051C91.7945 473.686 91.9079 473.31 91.9737 472.923C92.0395 472.529 92.0724 472.138 92.0724 471.751V471.488ZM92.3576 471.488H93.4653V471.751C93.4653 472.123 93.4982 472.499 93.564 472.879C93.6372 473.259 93.7505 473.617 93.904 473.953C94.0576 474.288 94.2587 474.599 94.5073 474.884C94.7559 475.161 95.0593 475.395 95.4176 475.585L94.6279 476.669C94.0869 476.384 93.6481 475.99 93.3118 475.486C92.9754 474.975 92.7305 474.398 92.5769 473.755C92.4307 473.105 92.3576 472.437 92.3576 471.751V471.488ZM90.493 470.371H95.0228V471.543H90.493V470.371ZM92.0724 469.001H93.4653V471.313H92.0724V469.001ZM97.6332 468.662H99.0261V478.805H97.6332V468.662ZM95.5822 468.826H96.9422V478.345H95.5822V468.826Z" fill="#303030"/>
<path d="M154.324 173.502V183.46H151.617V175.992H151.559L149.378 177.295V175L151.832 173.502H154.324Z" fill="#004FFF"/>
<path d="M164.429 172H166.252V181.324H164.429V172ZM165.745 175.56H167.939V177.066H165.745V175.56ZM158.068 182.995H166.705V184.46H158.068V182.995ZM158.068 180.393H159.905V183.31H158.068V180.393ZM156.628 172.904H158.438V174.711H160.933V172.904H162.729V179.339H156.628V172.904ZM158.438 176.108V177.901H160.933V176.108H158.438Z" fill="#004FFF"/>
<path d="M176.126 173.205H177.072V175.423C177.072 176.135 176.98 176.829 176.798 177.504C176.624 178.171 176.373 178.796 176.044 179.38C175.724 179.955 175.344 180.466 174.906 180.914C174.476 181.352 174.005 181.699 173.494 181.954L172.794 181.009C173.261 180.799 173.695 180.498 174.097 180.106C174.499 179.713 174.851 179.271 175.153 178.778C175.454 178.276 175.692 177.737 175.865 177.162C176.039 176.587 176.126 176.007 176.126 175.423V173.205ZM176.318 173.205H177.264V175.423C177.264 175.989 177.346 176.546 177.511 177.093C177.684 177.641 177.922 178.161 178.224 178.654C178.534 179.138 178.886 179.567 179.279 179.941C179.681 180.307 180.111 180.594 180.568 180.804L179.882 181.708C179.38 181.47 178.914 181.137 178.484 180.708C178.054 180.279 177.675 179.786 177.346 179.229C177.026 178.673 176.775 178.07 176.592 177.422C176.409 176.774 176.318 176.108 176.318 175.423V173.205ZM181.87 172.137H183.008V184.542H181.87V172.137Z" fill="#303030"/>
<path d="M193.948 172.137H195.099V181.187H193.948V172.137ZM194.743 175.889H196.923V176.847H194.743V175.889ZM190.561 173.095H191.768C191.768 174.163 191.53 175.131 191.055 175.998C190.589 176.865 189.922 177.618 189.053 178.257C188.185 178.896 187.157 179.403 185.969 179.777L185.489 178.86C186.531 178.531 187.431 178.107 188.19 177.586C188.948 177.066 189.533 176.468 189.945 175.793C190.356 175.117 190.561 174.387 190.561 173.602V173.095ZM185.996 173.095H191.151V174.04H185.996V173.095ZM187.367 183.323H195.634V184.254H187.367V183.323ZM187.367 180.27H188.505V183.693H187.367V180.27Z" fill="#303030"/>
<path d="M201.199 178.846H202.337V182.379H201.199V178.846ZM205.011 178.86H206.149V182.392H205.011V178.86ZM198.087 182.077H209.329V183.022H198.087V182.077ZM199.074 173.287H208.274V174.218H199.074V173.287ZM199.102 178.23H208.246V179.161H199.102V178.23ZM200.994 174.04H202.132V178.422H200.994V174.04ZM205.216 174.04H206.341V178.422H205.216V174.04Z" fill="#303030"/>
<path d="M88.0078 206.339H88.9072V208.113H88.0078V206.339ZM92.5485 202.253H93.4589V208.081H92.5485V202.253ZM85.4193 206.646L85.3097 205.977C85.9458 205.977 86.6258 205.974 87.3497 205.967C88.0809 205.952 88.8231 205.93 89.5762 205.901C90.3293 205.864 91.0605 205.806 91.7698 205.726L91.8246 206.317C91.1008 206.419 90.3622 206.496 89.6091 206.547C88.8633 206.591 88.1321 206.62 87.4155 206.635C86.7062 206.642 86.0409 206.646 85.4193 206.646ZM86.8123 208.442H93.4589V210.501H87.7336V211.619H86.8452V209.888H92.5595V209.088H86.8123V208.442ZM86.8452 211.378H93.7879V212.046H86.8452V211.378ZM90.5743 206.963H92.8447V207.555H90.5743V206.963ZM88.5123 202.439C89.0022 202.439 89.43 202.498 89.7956 202.615C90.1612 202.732 90.4463 202.903 90.6511 203.13C90.8558 203.356 90.9582 203.622 90.9582 203.929C90.9582 204.229 90.8558 204.491 90.6511 204.718C90.4463 204.937 90.1612 205.108 89.7956 205.233C89.43 205.349 89.0022 205.408 88.5123 205.408C88.0224 205.408 87.591 205.349 87.2181 205.233C86.8525 205.108 86.5673 204.937 86.3626 204.718C86.1652 204.491 86.0665 204.229 86.0665 203.929C86.0665 203.622 86.1652 203.356 86.3626 203.13C86.5673 202.903 86.8525 202.732 87.2181 202.615C87.591 202.498 88.0224 202.439 88.5123 202.439ZM88.5123 203.064C88.0297 203.064 87.6422 203.14 87.3497 203.294C87.0645 203.447 86.922 203.659 86.922 203.929C86.922 204.185 87.0645 204.393 87.3497 204.553C87.6422 204.707 88.0297 204.784 88.5123 204.784C88.9949 204.784 89.3788 204.707 89.6639 204.553C89.9564 204.393 90.1027 204.185 90.1027 203.929C90.1027 203.659 89.9564 203.447 89.6639 203.294C89.3788 203.14 88.9949 203.064 88.5123 203.064Z" fill="#404040"/>
<path d="M142.749 208.146H143.659V209.757H142.749V208.146ZM146.917 202.242H147.827V212.155H146.917V202.242ZM147.542 206.448H149.374V207.215H147.542V206.448ZM140.204 210.271L140.062 209.505C140.661 209.505 141.312 209.501 142.014 209.494C142.723 209.479 143.447 209.45 144.186 209.406C144.924 209.362 145.637 209.293 146.325 209.198L146.39 209.866C145.681 209.99 144.957 210.081 144.219 210.14C143.488 210.198 142.778 210.235 142.091 210.249C141.411 210.264 140.782 210.271 140.204 210.271ZM140.237 203.447H146.16V204.181H140.237V203.447ZM143.21 204.751C143.67 204.751 144.076 204.827 144.427 204.981C144.778 205.134 145.052 205.349 145.25 205.627C145.447 205.897 145.546 206.218 145.546 206.591C145.546 206.956 145.447 207.277 145.25 207.555C145.052 207.832 144.778 208.048 144.427 208.201C144.076 208.347 143.67 208.42 143.21 208.42C142.749 208.42 142.34 208.347 141.981 208.201C141.63 208.048 141.356 207.832 141.159 207.555C140.969 207.277 140.873 206.956 140.873 206.591C140.873 206.218 140.969 205.897 141.159 205.627C141.356 205.349 141.63 205.134 141.981 204.981C142.34 204.827 142.749 204.751 143.21 204.751ZM143.21 205.463C142.764 205.463 142.405 205.565 142.135 205.769C141.864 205.974 141.729 206.248 141.729 206.591C141.729 206.927 141.864 207.197 142.135 207.401C142.405 207.606 142.764 207.708 143.21 207.708C143.648 207.708 144.003 207.606 144.274 207.401C144.544 207.197 144.679 206.927 144.679 206.591C144.679 206.248 144.544 205.974 144.274 205.769C144.003 205.565 143.648 205.463 143.21 205.463ZM142.749 202.264H143.659V203.929H142.749V202.264Z" fill="#404040"/>
<path d="M199.037 202.593H199.837V203.151C199.837 203.531 199.764 203.889 199.618 204.225C199.472 204.553 199.271 204.857 199.015 205.134C198.766 205.412 198.474 205.66 198.137 205.879C197.801 206.098 197.435 206.281 197.041 206.427C196.653 206.573 196.254 206.679 195.845 206.744L195.472 206.01C195.838 205.959 196.192 205.872 196.536 205.747C196.887 205.623 197.212 205.474 197.512 205.298C197.812 205.116 198.075 204.911 198.302 204.685C198.536 204.459 198.715 204.218 198.839 203.962C198.971 203.699 199.037 203.429 199.037 203.151V202.593ZM199.19 202.593H199.98V203.151C199.98 203.429 200.046 203.695 200.177 203.951C200.309 204.207 200.488 204.448 200.715 204.674C200.949 204.9 201.216 205.105 201.515 205.287C201.815 205.47 202.137 205.623 202.481 205.747C202.832 205.872 203.186 205.959 203.545 206.01L203.183 206.744C202.773 206.679 202.375 206.573 201.987 206.427C201.6 206.273 201.234 206.087 200.89 205.868C200.554 205.649 200.258 205.401 200.002 205.123C199.753 204.846 199.556 204.543 199.41 204.214C199.263 203.878 199.19 203.524 199.19 203.151V202.593ZM199.037 208.387H199.936V212.155H199.037V208.387ZM195.022 207.818H203.983V208.574H195.022V207.818Z" fill="#404040"/>
<path d="M251.014 202.659H257.672V206.021H251.014V202.659ZM256.783 203.381H251.902V205.287H256.783V203.381ZM249.862 207.259H258.823V208.004H249.862V207.259ZM253.888 205.835H254.798V207.544H253.888V205.835ZM250.86 209.023H257.715V212.155H256.805V209.757H250.86V209.023Z" fill="#404040"/>
<path d="M305.843 202.768H312.226V203.513H305.843V202.768ZM304.702 206.416H313.696V207.16H304.702V206.416ZM311.634 202.768H312.533V203.502C312.533 203.918 312.519 204.378 312.49 204.882C312.46 205.386 312.365 205.985 312.204 206.679L311.305 206.624C311.466 205.952 311.561 205.368 311.59 204.871C311.619 204.367 311.634 203.911 311.634 203.502V202.768ZM305.81 208.508H312.566V212.024H305.81V208.508ZM311.667 209.231H306.698V211.279H311.667V209.231Z" fill="#404040"/>
<path d="M33.6141 241.216V249.183H31.9277V242.815H31.8809L30.0542 243.959V242.465L32.0289 241.216H33.6141Z" fill="#004FFF"/>
<path d="M36.3441 241.121H42.7165V241.865H36.3441V241.121ZM35.4118 247.89H44.3727V248.646H35.4118V247.89ZM37.6054 244.626H38.5158V248.164H37.6054V244.626ZM42.4204 241.121H43.3307V242.205C43.3307 242.621 43.3234 243.052 43.3088 243.498C43.3015 243.943 43.2722 244.421 43.221 244.933C43.1772 245.436 43.0967 245.995 42.9797 246.608L42.0804 246.51C42.2485 245.626 42.3472 244.845 42.3765 244.166C42.4057 243.479 42.4204 242.826 42.4204 242.205V241.121ZM40.0622 244.626H40.9616V248.164H40.0622V244.626Z" fill="#404040"/>
<path d="M48.1119 240.978H48.8687V242.753C48.8687 243.322 48.7956 243.877 48.6493 244.418C48.5104 244.951 48.3093 245.451 48.0461 245.918C47.7902 246.378 47.4867 246.787 47.1357 247.145C46.7921 247.496 46.4155 247.773 46.006 247.978L45.4467 247.222C45.8196 247.054 46.1669 246.813 46.4886 246.499C46.8104 246.185 47.0919 245.831 47.3332 245.436C47.5745 245.035 47.7646 244.604 47.9035 244.144C48.0424 243.684 48.1119 243.22 48.1119 242.753V240.978ZM48.2654 240.978H49.0222V242.753C49.0222 243.205 49.088 243.651 49.2197 244.089C49.3586 244.527 49.5487 244.943 49.79 245.338C50.0386 245.725 50.3201 246.068 50.6345 246.367C50.9563 246.66 51.2999 246.89 51.6655 247.058L51.1171 247.78C50.715 247.591 50.342 247.324 49.9984 246.981C49.6547 246.638 49.3513 246.243 49.088 245.798C48.8321 245.352 48.631 244.87 48.4848 244.352C48.3386 243.833 48.2654 243.3 48.2654 242.753V240.978ZM52.7075 240.124H53.6178V250.048H52.7075V240.124Z" fill="#404040"/>
<path d="M29.2298 295.279V294.066L32.0692 291.44C32.3106 291.207 32.5132 290.997 32.6768 290.81C32.8429 290.623 32.9689 290.44 33.0546 290.262C33.1403 290.08 33.1831 289.884 33.1831 289.674C33.1831 289.441 33.1299 289.24 33.0234 289.071C32.917 288.9 32.7715 288.769 32.5872 288.678C32.4028 288.585 32.1938 288.538 31.9601 288.538C31.716 288.538 31.5031 288.588 31.3213 288.686C31.1396 288.785 30.9994 288.926 30.9007 289.11C30.802 289.294 30.7527 289.513 30.7527 289.768H29.1519C29.1519 289.246 29.27 288.794 29.5063 288.41C29.7426 288.026 30.0737 287.729 30.4995 287.519C30.9254 287.309 31.4161 287.204 31.9718 287.204C32.543 287.204 33.0403 287.305 33.4635 287.508C33.8894 287.707 34.2204 287.985 34.4567 288.34C34.693 288.695 34.8112 289.102 34.8112 289.561C34.8112 289.862 34.7514 290.159 34.632 290.452C34.5152 290.745 34.3061 291.071 34.0049 291.428C33.7037 291.784 33.2792 292.21 32.7313 292.708L31.5667 293.848V293.902H34.9163V295.279H29.2298Z" fill="#004FFF"/>
<path d="M36.9725 287.217H43.3449V287.962H36.9725V287.217ZM36.0402 293.987H45.001V294.743H36.0402V293.987ZM38.2338 290.723H39.1441V294.261H38.2338V290.723ZM43.0487 287.217H43.9591V288.302C43.9591 288.718 43.9518 289.149 43.9371 289.594C43.9298 290.04 43.9006 290.518 43.8494 291.029C43.8055 291.533 43.7251 292.092 43.6081 292.705L42.7087 292.607C42.8769 291.723 42.9756 290.942 43.0049 290.263C43.0341 289.576 43.0487 288.923 43.0487 288.302V287.217ZM40.6906 290.723H41.59V294.261H40.6906V290.723Z" fill="#404040"/>
<path d="M48.7403 287.075H49.4971V288.85C49.4971 289.419 49.4239 289.974 49.2777 290.515C49.1388 291.048 48.9377 291.548 48.6745 292.015C48.4185 292.475 48.1151 292.884 47.7641 293.242C47.4204 293.593 47.0439 293.87 46.6344 294.074L46.075 293.319C46.448 293.151 46.7953 292.91 47.117 292.596C47.4387 292.282 47.7202 291.928 47.9615 291.533C48.2028 291.132 48.3929 290.701 48.5319 290.241C48.6708 289.781 48.7403 289.317 48.7403 288.85V287.075ZM48.8938 287.075H49.6506V288.85C49.6506 289.302 49.7164 289.748 49.848 290.186C49.987 290.624 50.1771 291.04 50.4184 291.435C50.667 291.822 50.9485 292.165 51.2629 292.464C51.5846 292.756 51.9283 292.986 52.2939 293.154L51.7455 293.877C51.3433 293.687 50.9704 293.421 50.6268 293.078C50.2831 292.734 49.9796 292.34 49.7164 291.895C49.4605 291.449 49.2594 290.967 49.1132 290.449C48.9669 289.93 48.8938 289.397 48.8938 288.85V287.075ZM53.3358 286.221H54.2462V296.145H53.3358V286.221Z" fill="#404040"/>
<path d="M32.1782 341.029C31.5966 341.029 31.0786 340.929 30.6242 340.729C30.1724 340.527 29.8153 340.249 29.5531 339.897C29.2934 339.542 29.1597 339.132 29.1519 338.668H30.8501C30.8605 338.862 30.9241 339.033 31.0409 339.181C31.1604 339.326 31.3188 339.439 31.5161 339.519C31.7134 339.6 31.9354 339.64 32.1821 339.64C32.4392 339.64 32.6664 339.595 32.8637 339.504C33.0611 339.413 33.2156 339.287 33.3272 339.127C33.4389 338.966 33.4947 338.78 33.4947 338.57C33.4947 338.358 33.435 338.17 33.3155 338.006C33.1987 337.84 33.0299 337.711 32.8092 337.617C32.5911 337.524 32.3314 337.477 32.0302 337.477H31.2863V336.24H32.0302C32.2847 336.24 32.5093 336.196 32.704 336.108C32.9014 336.02 33.0546 335.898 33.1636 335.742C33.2727 335.584 33.3272 335.4 33.3272 335.19C33.3272 334.99 33.2792 334.815 33.1831 334.665C33.0896 334.512 32.9572 334.393 32.7858 334.307C32.617 334.222 32.4197 334.179 32.1938 334.179C31.9653 334.179 31.7563 334.22 31.5667 334.303C31.3772 334.384 31.2253 334.499 31.111 334.649C30.9968 334.8 30.9358 334.976 30.928 335.178H29.3116C29.3194 334.719 29.4505 334.315 29.705 333.965C29.9594 333.615 30.3022 333.341 30.7332 333.144C31.1669 332.944 31.6563 332.845 32.2016 332.845C32.7521 332.845 33.2337 332.944 33.6466 333.144C34.0595 333.344 34.3801 333.613 34.6086 333.953C34.8397 334.29 34.954 334.669 34.9514 335.089C34.954 335.535 34.8151 335.907 34.5346 336.205C34.2568 336.504 33.8946 336.693 33.448 336.773V336.836C34.0348 336.911 34.4814 337.114 34.7878 337.446C35.0968 337.776 35.25 338.188 35.2474 338.683C35.25 339.137 35.1189 339.54 34.854 339.893C34.5918 340.246 34.2295 340.523 33.7673 340.725C33.3051 340.928 32.7754 341.029 32.1782 341.029Z" fill="#004FFF"/>
<path d="M37.2938 332.858H43.6662V333.603H37.2938V332.858ZM36.3615 339.627H45.3224V340.383H36.3615V339.627ZM38.5551 336.363H39.4655V339.901H38.5551V336.363ZM43.3701 332.858H44.2804V333.942C44.2804 334.359 44.2731 334.789 44.2585 335.235C44.2512 335.68 44.2219 336.159 44.1707 336.67C44.1269 337.174 44.0464 337.732 43.9294 338.346L43.0301 338.247C43.1982 337.364 43.2969 336.582 43.3262 335.903C43.3554 335.217 43.3701 334.563 43.3701 333.942V332.858ZM41.0119 336.363H41.9113V339.901H41.0119V336.363Z" fill="#404040"/>
<path d="M49.0616 332.715H49.8184V334.49C49.8184 335.06 49.7453 335.615 49.599 336.155C49.4601 336.688 49.259 337.188 48.9958 337.656C48.7399 338.116 48.4364 338.525 48.0854 338.882C47.7418 339.233 47.3652 339.51 46.9557 339.715L46.3964 338.959C46.7693 338.791 47.1166 338.55 47.4383 338.236C47.7601 337.922 48.0416 337.568 48.2829 337.174C48.5242 336.772 48.7143 336.341 48.8532 335.881C48.9921 335.421 49.0616 334.957 49.0616 334.49V332.715ZM49.2151 332.715H49.9719V334.49C49.9719 334.943 50.0377 335.388 50.1694 335.826C50.3083 336.264 50.4984 336.681 50.7397 337.075C50.9883 337.462 51.2698 337.805 51.5842 338.105C51.906 338.397 52.2496 338.627 52.6152 338.795L52.0668 339.518C51.6647 339.328 51.2917 339.061 50.9481 338.718C50.6044 338.375 50.301 337.981 50.0377 337.535C49.7818 337.09 49.5807 336.608 49.4345 336.089C49.2883 335.571 49.2151 335.038 49.2151 334.49V332.715ZM53.6572 331.861H54.5675V341.785H53.6572V331.861Z" fill="#404040"/>
<path d="M29.1091 385.16V383.833L32.4392 378.594H33.5843V380.43H32.9066L30.8072 383.748V383.81H35.5395V385.16H29.1091ZM32.9377 386.56V384.755L32.9689 384.168V378.594H34.5502V386.56H32.9377Z" fill="#004FFF"/>
<path d="M37.4973 378.498H43.8697V379.243H37.4973V378.498ZM36.565 385.268H45.5259V386.024H36.565V385.268ZM38.7586 382.004H39.669V385.542H38.7586V382.004ZM43.5736 378.498H44.4839V379.583C44.4839 379.999 44.4766 380.43 44.462 380.875C44.4547 381.321 44.4254 381.799 44.3742 382.31C44.3304 382.814 44.2499 383.373 44.1329 383.986L43.2336 383.888C43.4017 383.004 43.5004 382.223 43.5297 381.543C43.5589 380.857 43.5736 380.203 43.5736 379.583V378.498ZM41.2155 382.004H42.1148V385.542H41.2155V382.004Z" fill="#404040"/>
<path d="M49.2651 378.356H50.0219V380.13C50.0219 380.7 49.9488 381.255 49.8025 381.795C49.6636 382.328 49.4625 382.829 49.1993 383.296C48.9434 383.756 48.6399 384.165 48.2889 384.523C47.9453 384.873 47.5687 385.151 47.1592 385.355L46.5999 384.6C46.9728 384.432 47.3201 384.191 47.6418 383.877C47.9636 383.563 48.2451 383.208 48.4864 382.814C48.7277 382.412 48.9178 381.982 49.0567 381.522C49.1956 381.061 49.2651 380.598 49.2651 380.13V378.356ZM49.4186 378.356H50.1754V380.13C50.1754 380.583 50.2412 381.029 50.3729 381.467C50.5118 381.905 50.7019 382.321 50.9432 382.715C51.1918 383.103 51.4733 383.446 51.7877 383.745C52.1095 384.037 52.4531 384.267 52.8187 384.435L52.2703 385.158C51.8682 384.968 51.4953 384.702 51.1516 384.359C50.8079 384.015 50.5045 383.621 50.2412 383.176C49.9853 382.73 49.7842 382.248 49.638 381.73C49.4918 381.211 49.4186 380.678 49.4186 380.13V378.356ZM53.8607 377.502H54.771V387.426H53.8607V377.502Z" fill="#404040"/>
<path d="M32.1432 432.31C31.5927 432.31 31.1019 432.208 30.6709 432.006C30.2425 431.804 29.9023 431.525 29.6504 431.17C29.3986 430.815 29.2674 430.407 29.2571 429.948H30.8929C30.9111 430.257 31.0409 430.507 31.2824 430.699C31.5239 430.891 31.8108 430.987 32.1432 430.987C32.408 430.987 32.6417 430.929 32.8442 430.812C33.0494 430.693 33.2091 430.528 33.3233 430.318C33.4402 430.105 33.4986 429.862 33.4986 429.587C33.4986 429.307 33.4389 429.06 33.3194 428.848C33.2026 428.635 33.0403 428.469 32.8326 428.35C32.6248 428.23 32.3872 428.17 32.1198 428.167C31.8861 428.167 31.6589 428.215 31.4382 428.311C31.2201 428.407 31.05 428.538 30.928 428.704L29.4284 428.435L29.8062 424.234H34.6826V425.611H31.1967L30.9903 427.607H31.037C31.1772 427.41 31.3889 427.246 31.6719 427.117C31.9549 426.987 32.2717 426.922 32.6222 426.922C33.1026 426.922 33.531 427.035 33.9075 427.261C34.2841 427.486 34.5814 427.796 34.7995 428.19C35.0176 428.582 35.1253 429.033 35.1228 429.544C35.1253 430.081 35.0007 430.558 34.7488 430.975C34.4996 431.39 34.1503 431.717 33.7011 431.956C33.2545 432.192 32.7352 432.31 32.1432 432.31Z" fill="#004FFF"/>
<path d="M37.1331 424.139H43.5055V424.884H37.1331V424.139ZM36.2009 430.908H45.1617V431.664H36.2009V430.908ZM38.3945 427.644H39.3048V431.182H38.3945V427.644ZM43.2094 424.139H44.1197V425.223C44.1197 425.639 44.1124 426.07 44.0978 426.516C44.0905 426.961 44.0612 427.439 44.0101 427.951C43.9662 428.454 43.8858 429.013 43.7688 429.627L42.8694 429.528C43.0376 428.644 43.1363 427.863 43.1655 427.184C43.1948 426.497 43.2094 425.844 43.2094 425.223V424.139ZM40.8513 427.644H41.7507V431.182H40.8513V427.644Z" fill="#404040"/>
<path d="M48.9009 423.996H49.6577V425.771C49.6577 426.34 49.5846 426.895 49.4384 427.436C49.2994 427.969 49.0983 428.469 48.8351 428.936C48.5792 429.397 48.2757 429.805 47.9248 430.163C47.5811 430.514 47.2045 430.791 46.7951 430.996L46.2357 430.24C46.6086 430.072 46.9559 429.831 47.2777 429.517C47.5994 429.203 47.8809 428.849 48.1222 428.454C48.3635 428.053 48.5536 427.622 48.6925 427.162C48.8315 426.702 48.9009 426.238 48.9009 425.771V423.996ZM49.0545 423.996H49.8113V425.771C49.8113 426.224 49.8771 426.669 50.0087 427.107C50.1476 427.545 50.3377 427.962 50.579 428.356C50.8276 428.743 51.1091 429.086 51.4236 429.386C51.7453 429.678 52.089 429.908 52.4546 430.076L51.9062 430.799C51.504 430.609 51.1311 430.342 50.7874 429.999C50.4438 429.656 50.1403 429.261 49.8771 428.816C49.6212 428.371 49.4201 427.889 49.2738 427.37C49.1276 426.852 49.0545 426.319 49.0545 425.771V423.996ZM53.4965 423.142H54.4069V433.066H53.4965V423.142Z" fill="#404040"/>
<path d="M32.2912 477.95C31.8809 477.947 31.4849 477.879 31.1032 477.744C30.7241 477.609 30.384 477.39 30.0828 477.086C29.7816 476.783 29.5427 476.381 29.3661 475.881C29.1921 475.38 29.1052 474.766 29.1052 474.037C29.1078 473.368 29.1844 472.77 29.335 472.244C29.4882 471.715 29.7063 471.266 29.9893 470.898C30.2749 470.53 30.6164 470.249 31.0137 470.058C31.4109 469.863 31.8562 469.766 32.3496 469.766C32.8819 469.766 33.3519 469.87 33.7595 470.077C34.1672 470.282 34.4944 470.561 34.7411 470.913C34.9903 471.266 35.1409 471.661 35.1929 472.1H33.5297C33.4648 471.822 33.3285 471.604 33.1208 471.446C32.9131 471.288 32.656 471.209 32.3496 471.209C31.8303 471.209 31.4356 471.435 31.1656 471.886C30.8981 472.337 30.7618 472.95 30.7566 473.726H30.8111C30.9306 473.49 31.0916 473.289 31.2941 473.123C31.4992 472.954 31.7316 472.826 31.9913 472.738C32.2535 472.647 32.5301 472.602 32.8209 472.602C33.2935 472.602 33.7141 472.713 34.0828 472.936C34.4515 473.156 34.7424 473.46 34.9553 473.846C35.1682 474.233 35.2747 474.675 35.2747 475.173C35.2747 475.712 35.1487 476.192 34.8968 476.612C34.6476 477.032 34.2983 477.361 33.8491 477.6C33.4025 477.836 32.8832 477.953 32.2912 477.95ZM32.2834 476.627C32.543 476.627 32.7754 476.565 32.9806 476.441C33.1857 476.316 33.3467 476.148 33.4635 475.935C33.5804 475.722 33.6388 475.484 33.6388 475.219C33.6388 474.955 33.5804 474.718 33.4635 474.508C33.3493 474.297 33.1909 474.13 32.9884 474.006C32.7858 473.881 32.5547 473.819 32.2951 473.819C32.1003 473.819 31.9199 473.855 31.7537 473.928C31.5901 474.001 31.446 474.102 31.3213 474.231C31.1993 474.361 31.1032 474.511 31.0331 474.683C30.963 474.851 30.928 475.031 30.928 475.223C30.928 475.48 30.9864 475.715 31.1032 475.927C31.2227 476.14 31.3837 476.31 31.5862 476.437C31.7913 476.564 32.0237 476.627 32.2834 476.627Z" fill="#004FFF"/>
<path d="M37.3045 469.779H43.6769V470.524H37.3045V469.779ZM36.3722 476.549H45.3331V477.304H36.3722V476.549ZM38.5658 473.284H39.4762V476.822H38.5658V473.284ZM43.3808 469.779H44.2911V470.864C44.2911 471.28 44.2838 471.711 44.2692 472.156C44.2619 472.602 44.2326 473.08 44.1814 473.591C44.1376 474.095 44.0571 474.654 43.9401 475.267L43.0408 475.168C43.2089 474.285 43.3077 473.503 43.3369 472.824C43.3661 472.138 43.3808 471.484 43.3808 470.864V469.779ZM41.0227 473.284H41.922V476.822H41.0227V473.284Z" fill="#404040"/>
<path d="M49.0723 469.637H49.8291V471.411C49.8291 471.981 49.756 472.536 49.6097 473.076C49.4708 473.609 49.2697 474.11 49.0065 474.577C48.7506 475.037 48.4471 475.446 48.0961 475.804C47.7525 476.154 47.3759 476.432 46.9664 476.636L46.4071 475.88C46.78 475.712 47.1273 475.471 47.449 475.157C47.7708 474.843 48.0523 474.489 48.2936 474.095C48.5349 473.693 48.725 473.262 48.8639 472.802C49.0028 472.342 49.0723 471.879 49.0723 471.411V469.637ZM49.2259 469.637H49.9826V471.411C49.9826 471.864 50.0484 472.309 50.1801 472.748C50.319 473.186 50.5091 473.602 50.7504 473.996C50.999 474.383 51.2805 474.727 51.5949 475.026C51.9167 475.318 52.2603 475.548 52.6259 475.716L52.0775 476.439C51.6754 476.249 51.3025 475.983 50.9588 475.639C50.6151 475.296 50.3117 474.902 50.0484 474.456C49.7925 474.011 49.5915 473.529 49.4452 473.011C49.299 472.492 49.2259 471.959 49.2259 471.411V469.637ZM53.6679 468.782H54.5782V478.706H53.6679V468.782Z" fill="#404040"/>
<path d="M29.5453 523.025L32.852 516.49V516.436H29V515.059H34.5969V516.455L31.2863 523.025H29.5453Z" fill="#004FFF"/>
<path d="M36.5869 514.963H42.9593V515.708H36.5869V514.963ZM35.6546 521.733H44.6154V522.488H35.6546V521.733ZM37.8482 518.468H38.7585V522.006H37.8482V518.468ZM42.6631 514.963H43.5735V516.048C43.5735 516.464 43.5662 516.895 43.5515 517.34C43.5442 517.786 43.515 518.264 43.4638 518.775C43.4199 519.279 43.3395 519.838 43.2225 520.451L42.3231 520.352C42.4913 519.469 42.59 518.687 42.6193 518.008C42.6485 517.322 42.6631 516.668 42.6631 516.048V514.963ZM40.305 518.468H41.2044V522.006H40.305V518.468Z" fill="#404040"/>
<path d="M48.3547 514.821H49.1115V516.595C49.1115 517.165 49.0383 517.72 48.8921 518.26C48.7532 518.793 48.5521 519.294 48.2889 519.761C48.0329 520.221 47.7295 520.63 47.3785 520.988C47.0349 521.338 46.6583 521.616 46.2488 521.82L45.6894 521.064C46.0624 520.896 46.4097 520.655 46.7314 520.341C47.0531 520.027 47.3346 519.673 47.5759 519.279C47.8172 518.877 48.0073 518.446 48.1463 517.986C48.2852 517.526 48.3547 517.063 48.3547 516.595V514.821ZM48.5082 514.821H49.265V516.595C49.265 517.048 49.3308 517.494 49.4624 517.932C49.6014 518.37 49.7915 518.786 50.0328 519.18C50.2814 519.567 50.5629 519.911 50.8773 520.21C51.199 520.502 51.5427 520.732 51.9083 520.9L51.3599 521.623C50.9577 521.433 50.5848 521.167 50.2412 520.823C49.8975 520.48 49.594 520.086 49.3308 519.64C49.0749 519.195 48.8738 518.713 48.7276 518.195C48.5813 517.676 48.5082 517.143 48.5082 516.595V514.821ZM52.9503 513.966H53.8606V523.89H52.9503V513.966Z" fill="#404040"/>
<path d="M84.3518 244.304H85.9531V245.487H84.3518V244.304ZM81.9827 243.286H83.0905V243.549C83.0905 244.074 83.0466 244.597 82.9589 245.115C82.8784 245.626 82.7468 246.112 82.564 246.572C82.3885 247.025 82.1582 247.437 81.873 247.81C81.5952 248.175 81.2515 248.474 80.842 248.708L80.0304 247.613C80.3887 247.401 80.6921 247.145 80.9407 246.846C81.1894 246.539 81.3904 246.207 81.544 245.849C81.7048 245.484 81.8182 245.108 81.884 244.721C81.9498 244.326 81.9827 243.936 81.9827 243.549V243.286ZM82.2679 243.286H83.3756V243.549C83.3756 243.921 83.4085 244.297 83.4744 244.677C83.5475 245.057 83.6608 245.414 83.8144 245.75C83.9679 246.086 84.169 246.397 84.4176 246.681C84.6662 246.959 84.9697 247.193 85.3279 247.382L84.5382 248.467C83.9972 248.182 83.5584 247.788 83.2221 247.284C82.8857 246.773 82.6408 246.196 82.4872 245.553C82.341 244.903 82.2679 244.235 82.2679 243.549V243.286ZM80.4033 242.169H84.9331V243.341H80.4033V242.169ZM81.9827 240.799H83.3756V243.111H81.9827V240.799ZM87.5435 240.46H88.9364V250.603H87.5435V240.46ZM85.4925 240.624H86.8525V250.143H85.4925V240.624Z" fill="#303030"/>
<path d="M92.4672 245.761H93.915V247.755H92.4672V245.761ZM95.8563 245.75H97.3041V247.744H95.8563V245.75ZM90.2956 245.192H99.4867V246.342H90.2956V245.192ZM91.3156 247.284H98.379V250.614H96.9202V248.423H91.3156V247.284ZM94.8912 240.668C95.637 240.668 96.2841 240.748 96.8325 240.909C97.3882 241.069 97.816 241.3 98.1158 241.599C98.4229 241.891 98.5764 242.245 98.5764 242.661C98.5764 243.07 98.4229 243.425 98.1158 243.724C97.816 244.023 97.3882 244.253 96.8325 244.414C96.2841 244.575 95.637 244.655 94.8912 244.655C94.1527 244.655 93.5055 244.575 92.9498 244.414C92.4014 244.253 91.9737 244.023 91.6666 243.724C91.3668 243.425 91.2169 243.07 91.2169 242.661C91.2169 242.245 91.3668 241.891 91.6666 241.599C91.9737 241.3 92.4014 241.069 92.9498 240.909C93.5055 240.748 94.1527 240.668 94.8912 240.668ZM94.8912 241.785C94.4378 241.785 94.0466 241.818 93.7176 241.884C93.3886 241.942 93.1399 242.037 92.9718 242.169C92.8109 242.3 92.7305 242.464 92.7305 242.661C92.7305 242.851 92.8109 243.012 92.9718 243.143C93.1399 243.275 93.3886 243.373 93.7176 243.439C94.0466 243.498 94.4378 243.527 94.8912 243.527C95.3591 243.527 95.754 243.498 96.0757 243.439C96.3974 243.373 96.6424 243.275 96.8106 243.143C96.9787 243.012 97.0628 242.851 97.0628 242.661C97.0628 242.464 96.9787 242.3 96.8106 242.169C96.6424 242.037 96.3974 241.942 96.0757 241.884C95.754 241.818 95.3591 241.785 94.8912 241.785Z" fill="#303030"/>
<path d="M138.885 240.755H140.157V241.237C140.157 241.624 140.095 242.001 139.97 242.366C139.853 242.724 139.678 243.059 139.444 243.373C139.21 243.687 138.925 243.969 138.588 244.217C138.252 244.465 137.861 244.677 137.415 244.852C136.976 245.02 136.494 245.148 135.967 245.236L135.397 244.064C135.865 244.005 136.282 243.907 136.647 243.768C137.02 243.629 137.345 243.465 137.623 243.275C137.908 243.085 138.142 242.877 138.325 242.65C138.508 242.424 138.647 242.19 138.742 241.949C138.837 241.708 138.885 241.471 138.885 241.237V240.755ZM139.159 240.755H140.431V241.237C140.431 241.471 140.479 241.708 140.574 241.949C140.669 242.19 140.808 242.424 140.99 242.65C141.173 242.877 141.404 243.085 141.681 243.275C141.967 243.465 142.292 243.629 142.658 243.768C143.031 243.907 143.451 244.005 143.919 244.064L143.349 245.236C142.815 245.148 142.329 245.02 141.89 244.852C141.451 244.677 141.064 244.465 140.727 244.217C140.391 243.961 140.106 243.676 139.872 243.362C139.638 243.048 139.459 242.713 139.334 242.355C139.217 241.997 139.159 241.624 139.159 241.237V240.755ZM138.885 246.89H140.343V250.614H138.885V246.89ZM135.057 245.969H144.248V247.152H135.057V245.969Z" fill="#303030"/>
<path d="M145.146 241.347H151.113V242.497H145.146V241.347ZM148.13 242.815C148.62 242.815 149.051 242.895 149.424 243.056C149.804 243.216 150.1 243.435 150.312 243.713C150.524 243.99 150.63 244.319 150.63 244.699C150.63 245.064 150.524 245.389 150.312 245.674C150.1 245.951 149.804 246.17 149.424 246.331C149.051 246.484 148.62 246.561 148.13 246.561C147.647 246.561 147.216 246.484 146.836 246.331C146.455 246.17 146.159 245.951 145.947 245.674C145.735 245.389 145.629 245.064 145.629 244.699C145.629 244.319 145.735 243.99 145.947 243.713C146.159 243.435 146.455 243.216 146.836 243.056C147.216 242.895 147.647 242.815 148.13 242.815ZM148.13 243.921C147.808 243.921 147.545 243.987 147.34 244.118C147.135 244.242 147.033 244.436 147.033 244.699C147.033 244.947 147.135 245.137 147.34 245.268C147.545 245.4 147.808 245.466 148.13 245.466C148.459 245.466 148.722 245.4 148.919 245.268C149.124 245.137 149.227 244.947 149.227 244.699C149.227 244.436 149.124 244.242 148.919 244.118C148.722 243.987 148.459 243.921 148.13 243.921ZM151.672 240.471H153.131V246.824H151.672V240.471ZM152.736 243.078H154.48V244.272H152.736V243.078ZM146.353 247.251H153.131V250.614H151.672V248.401H146.353V247.251ZM147.406 240.405H148.854V242.015H147.406V240.405Z" fill="#303030"/>
<path d="M142.054 423.021H143.513V433.165H142.054V423.021ZM139.06 424.073H140.497C140.497 424.847 140.42 425.588 140.267 426.297C140.12 426.998 139.872 427.659 139.521 428.279C139.177 428.9 138.702 429.477 138.095 430.01C137.495 430.536 136.746 431.018 135.846 431.456L135.079 430.306C136.059 429.831 136.837 429.309 137.415 428.739C138 428.162 138.42 427.512 138.676 426.79C138.932 426.059 139.06 425.241 139.06 424.336V424.073ZM135.627 424.073H139.74V425.234H135.627V424.073Z" fill="#303030"/>
<path d="M151.629 423.011H153.098V433.154H151.629V423.011ZM152.725 426.899H154.513V428.093H152.725V426.899ZM148.963 424.062H150.4C150.4 425.077 150.254 426.037 149.961 426.943C149.676 427.848 149.201 428.681 148.536 429.44C147.877 430.192 146.985 430.85 145.859 431.412L145.037 430.306C145.929 429.846 146.664 429.327 147.241 428.75C147.826 428.173 148.258 427.52 148.536 426.79C148.821 426.052 148.963 425.23 148.963 424.325V424.062ZM145.596 424.062H149.72V425.234H145.596V424.062Z" fill="#303030"/>
<path d="M136.132 473.186H143.272V474.358H136.132V473.186ZM135.057 476.483H144.259V477.677H135.057V476.483ZM138.918 473.723H140.365V476.866H138.918V473.723ZM136.132 469.363H143.195V470.524H137.579V473.69H136.132V469.363Z" fill="#303030"/>
<path d="M145.684 473.317H146.485C147.165 473.317 147.746 473.31 148.228 473.295C148.711 473.273 149.146 473.244 149.534 473.208C149.921 473.164 150.305 473.102 150.685 473.021L150.828 474.172C150.433 474.259 150.035 474.325 149.632 474.369C149.23 474.413 148.777 474.442 148.272 474.456C147.775 474.471 147.179 474.478 146.485 474.478H145.684V473.317ZM145.684 469.352H150.247V470.513H147.132V473.635H145.684V469.352ZM146.715 475.234H153.647V478.816H152.177V476.395H146.715V475.234ZM152.177 468.662H153.647V474.796H152.177V468.662ZM149.786 471.203H152.561V472.353H149.786V471.203Z" fill="#303030"/>
<path d="M135.474 514.854H139.861V516.015H135.474V514.854ZM136.79 517.756H138.216V521.207H136.79V517.756ZM139.268 514.854H140.716V515.686C140.716 516.175 140.702 516.734 140.672 517.362C140.65 517.99 140.57 518.728 140.431 519.575L139.005 519.454C139.137 518.644 139.214 517.935 139.236 517.329C139.258 516.716 139.268 516.168 139.268 515.686V514.854ZM141.583 513.846H143.031V523.989H141.583V513.846ZM142.614 517.921H144.402V519.126H142.614V517.921ZM135.101 521.952L134.969 520.769C135.561 520.769 136.205 520.765 136.899 520.758C137.601 520.743 138.311 520.718 139.027 520.681C139.751 520.637 140.449 520.575 141.122 520.495L141.188 521.557C140.501 521.667 139.799 521.751 139.082 521.809C138.373 521.868 137.678 521.908 136.998 521.93C136.318 521.944 135.686 521.952 135.101 521.952Z" fill="#303030"/>
<path d="M145.146 514.733H151.113V515.883H145.146V514.733ZM148.13 516.201C148.62 516.201 149.051 516.281 149.424 516.442C149.804 516.603 150.1 516.822 150.312 517.099C150.524 517.377 150.63 517.705 150.63 518.085C150.63 518.45 150.524 518.775 150.312 519.06C150.1 519.337 149.804 519.556 149.424 519.717C149.051 519.87 148.62 519.947 148.13 519.947C147.647 519.947 147.216 519.87 146.836 519.717C146.455 519.556 146.159 519.337 145.947 519.06C145.735 518.775 145.629 518.45 145.629 518.085C145.629 517.705 145.735 517.377 145.947 517.099C146.159 516.822 146.455 516.603 146.836 516.442C147.216 516.281 147.647 516.201 148.13 516.201ZM148.13 517.307C147.808 517.307 147.545 517.373 147.34 517.504C147.135 517.629 147.033 517.822 147.033 518.085C147.033 518.333 147.135 518.523 147.34 518.655C147.545 518.786 147.808 518.852 148.13 518.852C148.459 518.852 148.722 518.786 148.919 518.655C149.124 518.523 149.227 518.333 149.227 518.085C149.227 517.822 149.124 517.629 148.919 517.504C148.722 517.373 148.459 517.307 148.13 517.307ZM151.672 513.857H153.131V520.21H151.672V513.857ZM152.736 516.464H154.48V517.658H152.736V516.464ZM146.353 520.637H153.131V524H151.672V521.787H146.353V520.637ZM147.406 513.791H148.854V515.401H147.406V513.791Z" fill="#303030"/>
<path d="M117.698 358.72H172.081V360.545H117.698V358.72Z" fill="white"/>
<path d="M135.55 332.65H140.431V339.474H135.55V332.65ZM139.005 333.8H136.987V338.324H139.005V333.8ZM142.021 331.73H143.48V341.906H142.021V331.73Z" fill="#303030"/>
<path d="M148.985 331.806H150.225V331.993C150.225 332.336 150.162 332.661 150.038 332.967C149.921 333.267 149.746 333.548 149.512 333.811C149.285 334.074 149.004 334.307 148.667 334.512C148.331 334.709 147.943 334.877 147.505 335.016C147.073 335.147 146.594 335.242 146.068 335.301L145.585 334.216C146.046 334.165 146.459 334.088 146.825 333.986C147.19 333.884 147.508 333.76 147.779 333.614C148.049 333.468 148.272 333.307 148.448 333.132C148.631 332.949 148.766 332.763 148.854 332.573C148.941 332.376 148.985 332.182 148.985 331.993V331.806ZM149.248 331.806H150.477V331.993C150.477 332.182 150.521 332.376 150.609 332.573C150.696 332.763 150.828 332.949 151.003 333.132C151.186 333.307 151.413 333.468 151.683 333.614C151.961 333.76 152.279 333.884 152.638 333.986C153.003 334.088 153.416 334.165 153.877 334.216L153.394 335.301C152.868 335.242 152.385 335.147 151.947 335.016C151.515 334.877 151.131 334.709 150.795 334.512C150.459 334.307 150.177 334.074 149.95 333.811C149.724 333.548 149.548 333.267 149.424 332.967C149.307 332.661 149.248 332.336 149.248 331.993V331.806ZM148.996 336.615H150.444V338.028H148.996V336.615ZM145.135 335.717H154.327V336.867H145.135V335.717ZM146.188 337.513H153.208V340.153H147.647V341.029H146.199V339.134H151.771V338.598H146.188V337.513ZM146.199 340.723H153.482V341.829H146.199V340.723Z" fill="#303030"/>
<path d="M136.007 378.747H140.888V385.571H136.007V378.747ZM139.462 379.897H137.444V384.421H139.462V379.897ZM142.478 377.826H143.937V388.002H142.478V377.826Z" fill="#303030"/>
<path d="M149.442 377.903H150.682V378.089C150.682 378.433 150.619 378.758 150.495 379.064C150.378 379.364 150.203 379.645 149.969 379.908C149.742 380.171 149.461 380.404 149.124 380.609C148.788 380.806 148.4 380.974 147.962 381.113C147.53 381.244 147.051 381.339 146.525 381.397L146.042 380.313C146.503 380.262 146.916 380.185 147.282 380.083C147.647 379.981 147.965 379.857 148.236 379.711C148.506 379.564 148.729 379.404 148.905 379.229C149.088 379.046 149.223 378.86 149.311 378.67C149.398 378.473 149.442 378.279 149.442 378.089V377.903ZM149.705 377.903H150.934V378.089C150.934 378.279 150.978 378.473 151.066 378.67C151.153 378.86 151.285 379.046 151.46 379.229C151.643 379.404 151.87 379.564 152.14 379.711C152.418 379.857 152.736 379.981 153.095 380.083C153.46 380.185 153.873 380.262 154.334 380.313L153.851 381.397C153.325 381.339 152.842 381.244 152.404 381.113C151.972 380.974 151.588 380.806 151.252 380.609C150.916 380.404 150.634 380.171 150.407 379.908C150.181 379.645 150.005 379.364 149.881 379.064C149.764 378.758 149.705 378.433 149.705 378.089V377.903ZM149.453 382.712H150.901V384.125H149.453V382.712ZM145.592 381.814H154.784V382.964H145.592V381.814ZM146.645 383.61H153.665V386.25H148.104V387.126H146.656V385.231H152.228V384.694H146.645V383.61ZM146.656 386.819H153.939V387.926H146.656V386.819Z" fill="#303030"/>
<path d="M22 222.842H337M22 268.534H337M22 314.226H337M22 359.918H337M22 405.61H337M22 451.302H337M22 496.993H337M62.8587 542V192M117.641 542L117.641 192M172.424 542L172.424 192M227.207 542L227.207 192M281.989 542L281.989 192" stroke="#555555" stroke-width="0.5"/>
</svg>
